<svg width="1920" height="808" viewBox="0 0 1920 808" fill="none" xmlns="http://www.w3.org/2000/svg">
<g clip-path="url(#clip0_2492_15119)">
<rect width="1920" height="808" fill="#F4F5F7"/>
<g opacity="0.6">
<path d="M1906.3 547.921L1906.3 536L1938 536L1938 567.699L1926.17 567.699L1926.17 547.921L1906.3 547.921Z" fill="white"/>
<path d="M1884.9 569.326L1884.9 557.495L1916.6 557.495L1916.6 589.104L1904.68 589.104L1904.68 569.326L1884.9 569.326Z" fill="white"/>
<path d="M1863.49 590.818L1863.49 578.897L1895.1 578.897L1895.1 610.596L1883.27 610.596L1883.27 590.818L1863.49 590.818Z" fill="white"/>
<path d="M1842 612.222L1842 600.301L1873.7 600.301L1873.7 632L1861.78 632L1861.78 612.222L1842 612.222Z" fill="white"/>
</g>
<path d="M1256.08 65.8602C1256.08 67.0247 1255.21 67.8981 1254.04 67.8981C1252.87 67.8981 1252 67.0247 1252 65.8602C1252 64.6956 1252.87 63.8223 1254.04 63.8223C1255.21 63.8223 1256.08 64.7927 1256.08 65.8602Z" fill="white"/>
<path d="M1273.47 65.8602C1273.47 67.0247 1272.6 67.8981 1271.43 67.8981C1270.26 67.8981 1269.39 67.0247 1269.39 65.8602C1269.39 64.6956 1270.26 63.8223 1271.43 63.8223C1272.5 63.8223 1273.47 64.7927 1273.47 65.8602Z" fill="white"/>
<path d="M1290.76 65.8602C1290.76 67.0247 1289.89 67.8981 1288.72 67.8981C1287.56 67.8981 1286.68 67.0247 1286.68 65.8602C1286.68 64.6956 1287.56 63.8223 1288.72 63.8223C1289.89 63.8223 1290.76 64.7927 1290.76 65.8602Z" fill="white"/>
<path d="M1308.15 65.8602C1308.15 67.0247 1307.28 67.8981 1306.11 67.8981C1304.95 67.8981 1304.07 67.0247 1304.07 65.8602C1304.07 64.6956 1304.95 63.8223 1306.11 63.8223C1307.28 63.8223 1308.15 64.7927 1308.15 65.8602Z" fill="white"/>
<path d="M1325.54 65.8602C1325.54 67.0247 1324.67 67.8981 1323.5 67.8981C1322.33 67.8981 1321.46 67.0247 1321.46 65.8602C1321.46 64.6956 1322.33 63.8223 1323.5 63.8223C1324.57 63.8223 1325.54 64.7927 1325.54 65.8602Z" fill="white"/>
<path d="M1342.93 65.8602C1342.93 67.0247 1342.05 67.8981 1340.89 67.8981C1339.72 67.8981 1338.85 67.0247 1338.85 65.8602C1338.85 64.6956 1339.72 63.8223 1340.89 63.8223C1342.05 63.8223 1342.93 64.7927 1342.93 65.8602Z" fill="white"/>
<path d="M1360.22 65.8602C1360.22 67.0247 1359.35 67.8981 1358.18 67.8981C1357.02 67.8981 1356.14 67.0247 1356.14 65.8602C1356.14 64.6956 1357.02 63.8223 1358.18 63.8223C1359.35 63.8223 1360.22 64.7927 1360.22 65.8602Z" fill="white"/>
<path d="M1377.61 65.8602C1377.61 67.0247 1376.74 67.8981 1375.57 67.8981C1374.41 67.8981 1373.53 67.0247 1373.53 65.8602C1373.53 64.6956 1374.41 63.8223 1375.57 63.8223C1376.74 63.8223 1377.61 64.7927 1377.61 65.8602Z" fill="white"/>
<path d="M1395 65.8602C1395 67.0247 1394.13 67.8981 1392.96 67.8981C1391.79 67.8981 1390.92 67.0247 1390.92 65.8602C1390.92 64.6956 1391.79 63.8223 1392.96 63.8223C1394.03 63.8223 1395 64.7927 1395 65.8602Z" fill="white"/>
<path d="M1256.08 80.3191C1256.08 81.4837 1255.21 82.357 1254.04 82.357C1252.87 82.357 1252 81.4837 1252 80.3191C1252 79.1546 1252.87 78.2812 1254.04 78.2812C1255.21 78.2812 1256.08 79.1546 1256.08 80.3191Z" fill="white"/>
<path d="M1273.47 80.3191C1273.47 81.4837 1272.6 82.357 1271.43 82.357C1270.26 82.357 1269.39 81.4837 1269.39 80.3191C1269.39 79.1546 1270.26 78.2812 1271.43 78.2812C1272.5 78.2812 1273.47 79.1546 1273.47 80.3191Z" fill="white"/>
<path d="M1290.76 80.3191C1290.76 81.4837 1289.89 82.357 1288.72 82.357C1287.56 82.357 1286.68 81.4837 1286.68 80.3191C1286.68 79.1546 1287.56 78.2812 1288.72 78.2812C1289.89 78.2812 1290.76 79.1546 1290.76 80.3191Z" fill="white"/>
<path d="M1308.15 80.3191C1308.15 81.4837 1307.28 82.357 1306.11 82.357C1304.95 82.357 1304.07 81.4837 1304.07 80.3191C1304.07 79.1546 1304.95 78.2812 1306.11 78.2812C1307.28 78.2812 1308.15 79.1546 1308.15 80.3191Z" fill="white"/>
<path d="M1325.54 80.3191C1325.54 81.4837 1324.67 82.357 1323.5 82.357C1322.33 82.357 1321.46 81.4837 1321.46 80.3191C1321.46 79.1546 1322.33 78.2812 1323.5 78.2812C1324.57 78.2812 1325.54 79.1546 1325.54 80.3191Z" fill="white"/>
<path d="M1342.93 80.3191C1342.93 81.4837 1342.05 82.357 1340.89 82.357C1339.72 82.357 1338.85 81.4837 1338.85 80.3191C1338.85 79.1546 1339.72 78.2812 1340.89 78.2812C1342.05 78.2812 1342.93 79.1546 1342.93 80.3191Z" fill="white"/>
<path d="M1360.22 80.3191C1360.22 81.4837 1359.35 82.357 1358.18 82.357C1357.02 82.357 1356.14 81.4837 1356.14 80.3191C1356.14 79.1546 1357.02 78.2812 1358.18 78.2812C1359.35 78.2812 1360.22 79.1546 1360.22 80.3191Z" fill="white"/>
<path d="M1377.61 80.3191C1377.61 81.4837 1376.74 82.357 1375.57 82.357C1374.41 82.357 1373.53 81.4837 1373.53 80.3191C1373.53 79.1546 1374.41 78.2812 1375.57 78.2812C1376.74 78.2812 1377.61 79.1546 1377.61 80.3191Z" fill="white"/>
<path d="M1395 80.3191C1395 81.4837 1394.13 82.357 1392.96 82.357C1391.79 82.357 1390.92 81.4837 1390.92 80.3191C1390.92 79.1546 1391.79 78.2812 1392.96 78.2812C1394.03 78.2812 1395 79.1546 1395 80.3191Z" fill="white"/>
<path d="M1256.08 37.0379C1256.08 38.2024 1255.21 39.0758 1254.04 39.0758C1252.87 39.0758 1252 38.2024 1252 37.0379C1252 35.8734 1252.87 35 1254.04 35C1255.21 35 1256.08 35.8734 1256.08 37.0379Z" fill="white"/>
<path d="M1273.47 37.0379C1273.47 38.2024 1272.6 39.0758 1271.43 39.0758C1270.26 39.0758 1269.39 38.2024 1269.39 37.0379C1269.39 35.8734 1270.26 35 1271.43 35C1272.5 35 1273.47 35.8734 1273.47 37.0379Z" fill="white"/>
<path d="M1290.76 37.0379C1290.76 38.2024 1289.89 39.0758 1288.72 39.0758C1287.56 39.0758 1286.68 38.2024 1286.68 37.0379C1286.68 35.8734 1287.65 35 1288.72 35C1289.89 35 1290.76 35.8734 1290.76 37.0379Z" fill="white"/>
<path d="M1308.15 37.0379C1308.15 38.2024 1307.28 39.0758 1306.11 39.0758C1304.95 39.0758 1304.07 38.2024 1304.07 37.0379C1304.07 35.8734 1305.04 35 1306.11 35C1307.18 35 1308.15 35.8734 1308.15 37.0379Z" fill="white"/>
<path d="M1325.54 37.0379C1325.54 38.2024 1324.67 39.0758 1323.5 39.0758C1322.33 39.0758 1321.46 38.2024 1321.46 37.0379C1321.46 35.8734 1322.33 35 1323.5 35C1324.57 35 1325.54 35.8734 1325.54 37.0379Z" fill="white"/>
<path d="M1342.93 37.0379C1342.93 38.2024 1342.05 39.0758 1340.89 39.0758C1339.72 39.0758 1338.85 38.2024 1338.85 37.0379C1338.85 35.8734 1339.72 35 1340.89 35C1342.05 35 1342.93 35.8734 1342.93 37.0379Z" fill="white"/>
<path d="M1360.22 37.0379C1360.22 38.2024 1359.35 39.0758 1358.18 39.0758C1357.02 39.0758 1356.14 38.2024 1356.14 37.0379C1356.14 35.8734 1357.02 35 1358.18 35C1359.35 35 1360.22 35.8734 1360.22 37.0379Z" fill="white"/>
<path d="M1377.61 37.0379C1377.61 38.2024 1376.74 39.0758 1375.57 39.0758C1374.41 39.0758 1373.53 38.2024 1373.53 37.0379C1373.53 35.8734 1374.41 35 1375.57 35C1376.74 35 1377.61 35.8734 1377.61 37.0379Z" fill="white"/>
<path d="M1395 37.0379C1395 38.2024 1394.13 39.0758 1392.96 39.0758C1391.79 39.0758 1390.92 38.2024 1390.92 37.0379C1390.92 35.8734 1391.79 35 1392.96 35C1394.03 35 1395 35.8734 1395 37.0379Z" fill="white"/>
<path d="M1256.08 51.4969C1256.08 52.6614 1255.21 53.5348 1254.04 53.5348C1252.87 53.5348 1252 52.5643 1252 51.4969C1252 50.3324 1252.87 49.459 1254.04 49.459C1255.21 49.459 1256.08 50.3324 1256.08 51.4969Z" fill="white"/>
<path d="M1273.47 51.4969C1273.47 52.6614 1272.6 53.5348 1271.43 53.5348C1270.26 53.5348 1269.39 52.6614 1269.39 51.4969C1269.39 50.3324 1270.26 49.459 1271.43 49.459C1272.5 49.459 1273.47 50.3324 1273.47 51.4969Z" fill="white"/>
<path d="M1290.76 51.4969C1290.76 52.6614 1289.89 53.5348 1288.72 53.5348C1287.56 53.5348 1286.68 52.6614 1286.68 51.4969C1286.68 50.3324 1287.56 49.459 1288.72 49.459C1289.89 49.459 1290.76 50.3324 1290.76 51.4969Z" fill="white"/>
<path d="M1308.15 51.4969C1308.15 52.6614 1307.28 53.5348 1306.11 53.5348C1304.95 53.5348 1304.07 52.6614 1304.07 51.4969C1304.07 50.3324 1304.95 49.459 1306.11 49.459C1307.28 49.459 1308.15 50.3324 1308.15 51.4969Z" fill="white"/>
<path d="M1325.54 51.4969C1325.54 52.6614 1324.67 53.5348 1323.5 53.5348C1322.33 53.5348 1321.46 52.6614 1321.46 51.4969C1321.46 50.3324 1322.33 49.459 1323.5 49.459C1324.57 49.459 1325.54 50.3324 1325.54 51.4969Z" fill="white"/>
<path d="M1342.93 51.4969C1342.93 52.6614 1342.05 53.5348 1340.89 53.5348C1339.72 53.5348 1338.85 52.6614 1338.85 51.4969C1338.85 50.3324 1339.72 49.459 1340.89 49.459C1342.05 49.459 1342.93 50.3324 1342.93 51.4969Z" fill="white"/>
<path d="M1360.22 51.4969C1360.22 52.6614 1359.35 53.5348 1358.18 53.5348C1357.02 53.5348 1356.14 52.6614 1356.14 51.4969C1356.14 50.3324 1357.02 49.459 1358.18 49.459C1359.35 49.459 1360.22 50.3324 1360.22 51.4969Z" fill="white"/>
<path d="M1377.61 51.4969C1377.61 52.6614 1376.74 53.5348 1375.57 53.5348C1374.41 53.5348 1373.53 52.6614 1373.53 51.4969C1373.53 50.3324 1374.41 49.459 1375.57 49.459C1376.74 49.459 1377.61 50.3324 1377.61 51.4969Z" fill="white"/>
<path d="M1395 51.4969C1395 52.6614 1394.13 53.5348 1392.96 53.5348C1391.79 53.5348 1390.92 52.6614 1390.92 51.4969C1390.92 50.3324 1391.79 49.459 1392.96 49.459C1394.03 49.459 1395 50.3324 1395 51.4969Z" fill="white"/>
<path d="M1256.08 94.6805C1256.08 95.845 1255.21 96.7184 1254.04 96.7184C1252.87 96.7184 1252 95.845 1252 94.6805C1252 93.516 1252.87 92.6426 1254.04 92.6426C1255.21 92.6426 1256.08 93.613 1256.08 94.6805Z" fill="white"/>
<path d="M1273.47 94.6805C1273.47 95.845 1272.6 96.7184 1271.43 96.7184C1270.26 96.7184 1269.39 95.845 1269.39 94.6805C1269.39 93.516 1270.26 92.6426 1271.43 92.6426C1272.5 92.6426 1273.47 93.613 1273.47 94.6805Z" fill="white"/>
<path d="M1290.76 94.6805C1290.76 95.845 1289.89 96.7184 1288.72 96.7184C1287.56 96.7184 1286.68 95.845 1286.68 94.6805C1286.68 93.516 1287.56 92.6426 1288.72 92.6426C1289.89 92.6426 1290.76 93.613 1290.76 94.6805Z" fill="white"/>
<path d="M1308.15 94.6805C1308.15 95.845 1307.28 96.7184 1306.11 96.7184C1304.95 96.7184 1304.07 95.845 1304.07 94.6805C1304.07 93.516 1304.95 92.6426 1306.11 92.6426C1307.28 92.6426 1308.15 93.613 1308.15 94.6805Z" fill="white"/>
<path d="M1325.54 94.6805C1325.54 95.845 1324.67 96.7184 1323.5 96.7184C1322.33 96.7184 1321.46 95.845 1321.46 94.6805C1321.46 93.516 1322.33 92.6426 1323.5 92.6426C1324.57 92.6426 1325.54 93.613 1325.54 94.6805Z" fill="white"/>
<path d="M1342.93 94.6805C1342.93 95.845 1342.05 96.7184 1340.89 96.7184C1339.72 96.7184 1338.85 95.845 1338.85 94.6805C1338.85 93.516 1339.72 92.6426 1340.89 92.6426C1342.05 92.6426 1342.93 93.613 1342.93 94.6805Z" fill="white"/>
<path d="M1360.22 94.6805C1360.22 95.845 1359.35 96.7184 1358.18 96.7184C1357.02 96.7184 1356.14 95.845 1356.14 94.6805C1356.14 93.516 1357.02 92.6426 1358.18 92.6426C1359.35 92.6426 1360.22 93.613 1360.22 94.6805Z" fill="white"/>
<path d="M1377.61 94.6805C1377.61 95.845 1376.74 96.7184 1375.57 96.7184C1374.41 96.7184 1373.53 95.845 1373.53 94.6805C1373.53 93.516 1374.41 92.6426 1375.57 92.6426C1376.74 92.6426 1377.61 93.613 1377.61 94.6805Z" fill="white"/>
<path d="M1395 94.6805C1395 95.845 1394.13 96.7184 1392.96 96.7184C1391.79 96.7184 1390.92 95.845 1390.92 94.6805C1390.92 93.516 1391.79 92.6426 1392.96 92.6426C1394.03 92.6426 1395 93.613 1395 94.6805Z" fill="white"/>
<path d="M1256.08 109.139C1256.08 110.304 1255.21 111.177 1254.04 111.177C1252.87 111.177 1252 110.304 1252 109.139C1252 107.975 1252.87 107.102 1254.04 107.102C1255.21 107.102 1256.08 107.975 1256.08 109.139Z" fill="white"/>
<path d="M1273.47 109.139C1273.47 110.304 1272.6 111.177 1271.43 111.177C1270.26 111.177 1269.39 110.304 1269.39 109.139C1269.39 107.975 1270.26 107.102 1271.43 107.102C1272.5 107.102 1273.47 107.975 1273.47 109.139Z" fill="white"/>
<path d="M1290.76 109.139C1290.76 110.304 1289.89 111.177 1288.72 111.177C1287.56 111.177 1286.68 110.304 1286.68 109.139C1286.68 107.975 1287.56 107.102 1288.72 107.102C1289.89 107.102 1290.76 107.975 1290.76 109.139Z" fill="white"/>
<path d="M1306.11 111.177C1307.24 111.177 1308.15 110.265 1308.15 109.139C1308.15 108.014 1307.24 107.102 1306.11 107.102C1304.98 107.102 1304.07 108.014 1304.07 109.139C1304.07 110.265 1304.98 111.177 1306.11 111.177Z" fill="white"/>
<path d="M1325.54 109.139C1325.54 110.304 1324.67 111.177 1323.5 111.177C1322.33 111.177 1321.46 110.304 1321.46 109.139C1321.46 107.975 1322.33 107.102 1323.5 107.102C1324.57 107.102 1325.54 107.975 1325.54 109.139Z" fill="white"/>
<path d="M1342.93 109.139C1342.93 110.304 1342.05 111.177 1340.89 111.177C1339.72 111.177 1338.85 110.304 1338.85 109.139C1338.85 107.975 1339.72 107.102 1340.89 107.102C1342.05 107.102 1342.93 107.975 1342.93 109.139Z" fill="white"/>
<path d="M1360.22 109.139C1360.22 110.304 1359.35 111.177 1358.18 111.177C1357.02 111.177 1356.14 110.304 1356.14 109.139C1356.14 107.975 1357.02 107.102 1358.18 107.102C1359.35 107.102 1360.22 107.975 1360.22 109.139Z" fill="white"/>
<path d="M1375.57 111.177C1376.7 111.177 1377.61 110.265 1377.61 109.139C1377.61 108.014 1376.7 107.102 1375.57 107.102C1374.44 107.102 1373.53 108.014 1373.53 109.139C1373.53 110.265 1374.44 111.177 1375.57 111.177Z" fill="white"/>
<path d="M1395 109.139C1395 110.304 1394.13 111.177 1392.96 111.177C1391.79 111.177 1390.92 110.304 1390.92 109.139C1390.92 107.975 1391.79 107.102 1392.96 107.102C1394.03 107.102 1395 107.975 1395 109.139Z" fill="white"/>
<path d="M1256.08 123.6C1256.08 124.765 1255.21 125.638 1254.04 125.638C1252.87 125.638 1252 124.765 1252 123.6C1252 122.436 1252.87 121.562 1254.04 121.562C1255.21 121.562 1256.08 122.436 1256.08 123.6Z" fill="white"/>
<path d="M1273.47 123.6C1273.47 124.765 1272.6 125.638 1271.43 125.638C1270.26 125.638 1269.39 124.765 1269.39 123.6C1269.39 122.436 1270.26 121.562 1271.43 121.562C1272.5 121.562 1273.47 122.436 1273.47 123.6Z" fill="white"/>
<path d="M1290.76 123.6C1290.76 124.765 1289.89 125.638 1288.72 125.638C1287.56 125.638 1286.68 124.765 1286.68 123.6C1286.68 122.436 1287.56 121.562 1288.72 121.562C1289.89 121.562 1290.76 122.436 1290.76 123.6Z" fill="white"/>
<path d="M1308.15 123.6C1308.15 124.765 1307.28 125.638 1306.11 125.638C1304.95 125.638 1304.07 124.765 1304.07 123.6C1304.07 122.436 1304.95 121.562 1306.11 121.562C1307.28 121.562 1308.15 122.436 1308.15 123.6Z" fill="white"/>
<path d="M1325.54 123.6C1325.54 124.765 1324.67 125.638 1323.5 125.638C1322.33 125.638 1321.46 124.765 1321.46 123.6C1321.46 122.436 1322.33 121.562 1323.5 121.562C1324.57 121.562 1325.54 122.436 1325.54 123.6Z" fill="white"/>
<path d="M1342.93 123.6C1342.93 124.765 1342.05 125.638 1340.89 125.638C1339.72 125.638 1338.85 124.765 1338.85 123.6C1338.85 122.436 1339.72 121.562 1340.89 121.562C1342.05 121.562 1342.93 122.436 1342.93 123.6Z" fill="white"/>
<path d="M1360.22 123.6C1360.22 124.765 1359.35 125.638 1358.18 125.638C1357.02 125.638 1356.14 124.765 1356.14 123.6C1356.14 122.436 1357.02 121.562 1358.18 121.562C1359.35 121.562 1360.22 122.436 1360.22 123.6Z" fill="white"/>
<path d="M1377.61 123.6C1377.61 124.765 1376.74 125.638 1375.57 125.638C1374.41 125.638 1373.53 124.765 1373.53 123.6C1373.53 122.436 1374.41 121.562 1375.57 121.562C1376.74 121.562 1377.61 122.436 1377.61 123.6Z" fill="white"/>
<path d="M1395 123.6C1395 124.765 1394.13 125.638 1392.96 125.638C1391.79 125.638 1390.92 124.765 1390.92 123.6C1390.92 122.436 1391.79 121.562 1392.96 121.562C1394.03 121.562 1395 122.436 1395 123.6Z" fill="white"/>
<path d="M1256.08 137.962C1256.08 139.126 1255.21 140 1254.04 140C1252.87 140 1252 139.126 1252 137.962C1252 136.797 1252.87 135.924 1254.04 135.924C1255.21 135.924 1256.08 136.894 1256.08 137.962Z" fill="white"/>
<path d="M1273.47 137.962C1273.47 139.126 1272.6 140 1271.43 140C1270.26 140 1269.39 139.126 1269.39 137.962C1269.39 136.797 1270.26 135.924 1271.43 135.924C1272.5 135.924 1273.47 136.894 1273.47 137.962Z" fill="white"/>
<path d="M1290.76 137.962C1290.76 139.126 1289.89 140 1288.72 140C1287.56 140 1286.68 139.126 1286.68 137.962C1286.68 136.797 1287.56 135.924 1288.72 135.924C1289.89 135.924 1290.76 136.894 1290.76 137.962Z" fill="white"/>
<path d="M1308.15 137.962C1308.15 139.126 1307.28 140 1306.11 140C1304.95 140 1304.07 139.126 1304.07 137.962C1304.07 136.797 1304.95 135.924 1306.11 135.924C1307.28 135.924 1308.15 136.894 1308.15 137.962Z" fill="white"/>
<path d="M1325.54 137.962C1325.54 139.126 1324.67 140 1323.5 140C1322.33 140 1321.46 139.126 1321.46 137.962C1321.46 136.797 1322.33 135.924 1323.5 135.924C1324.57 135.924 1325.54 136.894 1325.54 137.962Z" fill="white"/>
<path d="M1342.93 137.962C1342.93 139.126 1342.05 140 1340.89 140C1339.72 140 1338.85 139.126 1338.85 137.962C1338.85 136.797 1339.72 135.924 1340.89 135.924C1342.05 135.924 1342.93 136.894 1342.93 137.962Z" fill="white"/>
<path d="M1360.22 137.962C1360.22 139.126 1359.35 140 1358.18 140C1357.02 140 1356.14 139.126 1356.14 137.962C1356.14 136.797 1357.02 135.924 1358.18 135.924C1359.35 135.924 1360.22 136.894 1360.22 137.962Z" fill="white"/>
<path d="M1377.61 137.962C1377.61 139.126 1376.74 140 1375.57 140C1374.41 140 1373.53 139.126 1373.53 137.962C1373.53 136.797 1374.41 135.924 1375.57 135.924C1376.74 135.924 1377.61 136.894 1377.61 137.962Z" fill="white"/>
<path d="M1395 137.962C1395 139.126 1394.13 140 1392.96 140C1391.79 140 1390.92 139.126 1390.92 137.962C1390.92 136.797 1391.79 135.924 1392.96 135.924C1394.03 135.924 1395 136.894 1395 137.962Z" fill="white"/>
<path opacity="0.6" d="M245 116.978C235.638 126.341 220.384 126.341 211.022 116.978C201.659 107.616 201.659 92.3624 211.022 83L245 116.978Z" fill="white"/>
</g>
<defs>
<clipPath id="clip0_2492_15119">
<rect width="1920" height="808" fill="white"/>
</clipPath>
</defs>
</svg>
