<svg width="1916" height="955" viewBox="0 0 1916 955" fill="none" xmlns="http://www.w3.org/2000/svg">
<g opacity="0.2">
<path d="M136.474 913.496L146.001 913.496L146.001 888L120.547 888L120.547 897.588L136.474 897.588L136.474 913.496Z" fill="#FFCF2D"/>
<path d="M119.161 930.71L128.761 930.71L128.761 905.287L103.234 905.287L103.234 914.803L119.161 914.803L119.161 930.71Z" fill="#FFCF2D"/>
<path d="M101.927 948L111.527 948L111.527 922.504L86 922.504L86 932.092L101.927 932.092L101.927 948Z" fill="#FFCF2D"/>
</g>
<g opacity="0.12" clip-path="url(#clip0_7417_2371)">
<path d="M1780.08 0C1713.15 0 1659 54.1469 1659 121.083C1659 187.853 1713.15 242.166 1780.08 242.166C1846.85 242.166 1901.17 188.019 1901.17 121.083C1901 54.1469 1846.85 0 1780.08 0ZM1780.08 234.36C1717.47 234.36 1666.81 183.701 1666.81 121.083C1666.81 58.4653 1717.47 7.80645 1780.08 7.80645C1842.7 7.80645 1893.36 58.4653 1893.36 121.083C1893.36 183.535 1842.53 234.36 1780.08 234.36Z" fill="#FFCF2D"/>
<path d="M1780.08 26.0762C1727.76 26.0762 1685.24 68.5964 1685.24 120.916C1685.24 173.236 1727.76 215.756 1780.08 215.756C1832.4 215.756 1874.92 173.402 1874.92 121.082C1874.92 68.5964 1832.4 26.0762 1780.08 26.0762ZM1780.08 201.306C1735.74 201.306 1699.69 165.264 1699.69 120.916C1699.69 76.569 1735.74 40.5264 1780.08 40.5264C1824.43 40.5264 1860.47 76.569 1860.47 120.916C1860.47 165.264 1824.43 201.306 1780.08 201.306Z" fill="#FFCF2D"/>
</g>
<defs>
<clipPath id="clip0_7417_2371">
<rect width="242" height="242" fill="white" transform="translate(1659)"/>
</clipPath>
</defs>
</svg>
