<svg width="1920" height="832" viewBox="0 0 1920 832" fill="none" xmlns="http://www.w3.org/2000/svg">
<g opacity="0.12" clip-path="url(#clip0_2492_17912)">
<path d="M323.083 0C256.147 0 202 54.1469 202 121.083C202 187.853 256.147 242.166 323.083 242.166C389.853 242.166 444.166 188.019 444.166 121.083C444 54.1469 389.853 0 323.083 0ZM323.083 234.36C260.465 234.36 209.806 183.701 209.806 121.083C209.806 58.4653 260.465 7.80645 323.083 7.80645C385.701 7.80645 436.36 58.4653 436.36 121.083C436.36 183.535 385.535 234.36 323.083 234.36Z" fill="#FFCF2D"/>
<path d="M323.083 26.0762C270.763 26.0762 228.243 68.5964 228.243 120.916C228.243 173.236 270.763 215.756 323.083 215.756C375.403 215.756 417.923 173.402 417.923 121.082C417.923 68.5964 375.403 26.0762 323.083 26.0762ZM323.083 201.306C278.736 201.306 242.693 165.264 242.693 120.916C242.693 76.569 278.736 40.5264 323.083 40.5264C367.431 40.5264 403.473 76.569 403.473 120.916C403.473 165.264 367.431 201.306 323.083 201.306Z" fill="#FFCF2D"/>
</g>
<g opacity="0.2">
<path d="M1810.49 346.473L1817.95 349.269L1798.1 356.703L1778.26 349.269L1785.66 346.494L1798.05 351.132L1810.49 346.473Z" fill="#FFCF2D"/>
<path d="M1810.49 336.433L1817.89 339.207L1798.05 346.642L1778.26 339.229L1785.72 336.433L1798.1 341.071L1810.49 336.433Z" fill="#FFCF2D"/>
<path d="M1810.43 326.372L1817.89 329.168L1798.1 336.581L1778.26 329.146L1785.66 326.372L1798.05 331.01L1810.43 326.372Z" fill="#FFCF2D"/>
<path d="M1810.49 316.311L1817.95 319.106L1798.1 326.541L1778.26 319.106L1785.72 316.311L1798.1 320.949L1810.49 316.311Z" fill="#FFCF2D"/>
</g>
<defs>
<clipPath id="clip0_2492_17912">
<rect width="242" height="242" fill="white" transform="translate(202)"/>
</clipPath>
</defs>
</svg>
