<svg width="1920" height="232" viewBox="0 0 1920 232" fill="none" xmlns="http://www.w3.org/2000/svg">
<g opacity="0.2">
<path d="M1760.02 133.901C1769.31 128.541 1772.51 116.619 1767.15 107.343C1761.79 98.0665 1749.87 94.8759 1740.59 100.235L1760.02 133.901Z" fill="#FFCF2D"/>
<path d="M1733.74 149.074C1743.03 143.714 1746.23 131.792 1740.87 122.516C1735.52 113.239 1723.59 110.049 1714.31 115.408L1733.74 149.074Z" fill="#FFCF2D"/>
<path d="M1707.46 164.246C1716.75 158.886 1719.95 146.964 1714.59 137.687C1709.24 128.411 1697.31 125.221 1688.03 130.58L1707.46 164.246Z" fill="#FFCF2D"/>
</g>
<g opacity="0.8" clip-path="url(#clip0_7404_2490)">
<path d="M258.88 8.39007C258.88 9.49912 258.049 10.3309 256.94 10.3309C255.832 10.3309 255 9.49912 255 8.39007C255 7.28101 255.832 6.44922 256.94 6.44922C258.049 6.44922 258.88 7.37343 258.88 8.39007Z" fill="#FFCF2D"/>
<path d="M275.419 8.39007C275.419 9.49912 274.587 10.3309 273.478 10.3309C272.37 10.3309 271.538 9.49912 271.538 8.39007C271.538 7.28101 272.37 6.44922 273.478 6.44922C274.495 6.44922 275.419 7.37343 275.419 8.39007Z" fill="#FFCF2D"/>
<path d="M291.864 8.39007C291.864 9.49912 291.033 10.3309 289.924 10.3309C288.815 10.3309 287.984 9.49912 287.984 8.39007C287.984 7.28101 288.815 6.44922 289.924 6.44922C291.033 6.44922 291.864 7.37343 291.864 8.39007Z" fill="#FFCF2D"/>
<path d="M308.402 8.39007C308.402 9.49912 307.571 10.3309 306.462 10.3309C305.353 10.3309 304.522 9.49912 304.522 8.39007C304.522 7.28101 305.353 6.44922 306.462 6.44922C307.571 6.44922 308.402 7.37343 308.402 8.39007Z" fill="#FFCF2D"/>
<path d="M324.94 8.39007C324.94 9.49912 324.108 10.3309 323 10.3309C321.891 10.3309 321.06 9.49912 321.06 8.39007C321.06 7.28101 321.891 6.44922 323 6.44922C324.016 6.44922 324.94 7.37343 324.94 8.39007Z" fill="#FFCF2D"/>
<path d="M341.478 8.39007C341.478 9.49912 340.647 10.3309 339.538 10.3309C338.429 10.3309 337.598 9.49912 337.598 8.39007C337.598 7.28101 338.429 6.44922 339.538 6.44922C340.647 6.44922 341.478 7.37343 341.478 8.39007Z" fill="#FFCF2D"/>
<path d="M357.924 8.39007C357.924 9.49912 357.092 10.3309 355.984 10.3309C354.875 10.3309 354.043 9.49912 354.043 8.39007C354.043 7.28101 354.875 6.44922 355.984 6.44922C357.092 6.44922 357.924 7.37343 357.924 8.39007Z" fill="#FFCF2D"/>
<path d="M374.462 8.39007C374.462 9.49912 373.63 10.3309 372.522 10.3309C371.413 10.3309 370.582 9.49912 370.582 8.39007C370.582 7.28101 371.413 6.44922 372.522 6.44922C373.63 6.44922 374.462 7.37343 374.462 8.39007Z" fill="#FFCF2D"/>
<path d="M391 8.39007C391 9.49912 390.169 10.3309 389.06 10.3309C387.951 10.3309 387.12 9.49912 387.12 8.39007C387.12 7.28101 387.951 6.44922 389.06 6.44922C390.076 6.44922 391 7.37343 391 8.39007Z" fill="#FFCF2D"/>
<path d="M258.88 22.1606C258.88 23.2696 258.049 24.1014 256.94 24.1014C255.832 24.1014 255 23.2696 255 22.1606C255 21.0515 255.832 20.2197 256.94 20.2197C258.049 20.2197 258.88 21.0515 258.88 22.1606Z" fill="#FFCF2D"/>
<path d="M275.419 22.1606C275.419 23.2696 274.587 24.1014 273.478 24.1014C272.37 24.1014 271.538 23.2696 271.538 22.1606C271.538 21.0515 272.37 20.2197 273.478 20.2197C274.495 20.2197 275.419 21.0515 275.419 22.1606Z" fill="#FFCF2D"/>
<path d="M291.864 22.1606C291.864 23.2696 291.033 24.1014 289.924 24.1014C288.815 24.1014 287.984 23.2696 287.984 22.1606C287.984 21.0515 288.815 20.2197 289.924 20.2197C291.033 20.2197 291.864 21.0515 291.864 22.1606Z" fill="#FFCF2D"/>
<path d="M308.402 22.1606C308.402 23.2696 307.571 24.1014 306.462 24.1014C305.353 24.1014 304.522 23.2696 304.522 22.1606C304.522 21.0515 305.353 20.2197 306.462 20.2197C307.571 20.2197 308.402 21.0515 308.402 22.1606Z" fill="#FFCF2D"/>
<path d="M324.94 22.1606C324.94 23.2696 324.108 24.1014 323 24.1014C321.891 24.1014 321.06 23.2696 321.06 22.1606C321.06 21.0515 321.891 20.2197 323 20.2197C324.016 20.2197 324.94 21.0515 324.94 22.1606Z" fill="#FFCF2D"/>
<path d="M341.478 22.1606C341.478 23.2696 340.647 24.1014 339.538 24.1014C338.429 24.1014 337.598 23.2696 337.598 22.1606C337.598 21.0515 338.429 20.2197 339.538 20.2197C340.647 20.2197 341.478 21.0515 341.478 22.1606Z" fill="#FFCF2D"/>
<path d="M357.924 22.1606C357.924 23.2696 357.092 24.1014 355.984 24.1014C354.875 24.1014 354.043 23.2696 354.043 22.1606C354.043 21.0515 354.875 20.2197 355.984 20.2197C357.092 20.2197 357.924 21.0515 357.924 22.1606Z" fill="#FFCF2D"/>
<path d="M374.462 22.1606C374.462 23.2696 373.63 24.1014 372.522 24.1014C371.413 24.1014 370.582 23.2696 370.582 22.1606C370.582 21.0515 371.413 20.2197 372.522 20.2197C373.63 20.2197 374.462 21.0515 374.462 22.1606Z" fill="#FFCF2D"/>
<path d="M391 22.1606C391 23.2696 390.169 24.1014 389.06 24.1014C387.951 24.1014 387.12 23.2696 387.12 22.1606C387.12 21.0515 387.951 20.2197 389.06 20.2197C390.076 20.2197 391 21.0515 391 22.1606Z" fill="#FFCF2D"/>
<path d="M258.88 35.8393C258.88 36.9483 258.049 37.7801 256.94 37.7801C255.832 37.7801 255 36.9483 255 35.8393C255 34.7302 255.832 33.8984 256.94 33.8984C258.049 33.8984 258.88 34.8226 258.88 35.8393Z" fill="#FFCF2D"/>
<path d="M275.419 35.8393C275.419 36.9483 274.587 37.7801 273.478 37.7801C272.37 37.7801 271.538 36.9483 271.538 35.8393C271.538 34.7302 272.37 33.8984 273.478 33.8984C274.495 33.8984 275.419 34.8226 275.419 35.8393Z" fill="#FFCF2D"/>
<path d="M291.864 35.8393C291.864 36.9483 291.033 37.7801 289.924 37.7801C288.815 37.7801 287.984 36.9483 287.984 35.8393C287.984 34.7302 288.815 33.8984 289.924 33.8984C291.033 33.8984 291.864 34.8226 291.864 35.8393Z" fill="#FFCF2D"/>
<path d="M308.402 35.8393C308.402 36.9483 307.571 37.7801 306.462 37.7801C305.353 37.7801 304.522 36.9483 304.522 35.8393C304.522 34.7302 305.353 33.8984 306.462 33.8984C307.571 33.8984 308.402 34.8226 308.402 35.8393Z" fill="#FFCF2D"/>
<path d="M324.94 35.8393C324.94 36.9483 324.108 37.7801 323 37.7801C321.891 37.7801 321.06 36.9483 321.06 35.8393C321.06 34.7302 321.891 33.8984 323 33.8984C324.016 33.8984 324.94 34.8226 324.94 35.8393Z" fill="#FFCF2D"/>
<path d="M341.478 35.8393C341.478 36.9483 340.647 37.7801 339.538 37.7801C338.429 37.7801 337.598 36.9483 337.598 35.8393C337.598 34.7302 338.429 33.8984 339.538 33.8984C340.647 33.8984 341.478 34.8226 341.478 35.8393Z" fill="#FFCF2D"/>
<path d="M357.924 35.8393C357.924 36.9483 357.092 37.7801 355.984 37.7801C354.875 37.7801 354.043 36.9483 354.043 35.8393C354.043 34.7302 354.875 33.8984 355.984 33.8984C357.092 33.8984 357.924 34.8226 357.924 35.8393Z" fill="#FFCF2D"/>
<path d="M374.462 35.8393C374.462 36.9483 373.63 37.7801 372.522 37.7801C371.413 37.7801 370.582 36.9483 370.582 35.8393C370.582 34.7302 371.413 33.8984 372.522 33.8984C373.63 33.8984 374.462 34.8226 374.462 35.8393Z" fill="#FFCF2D"/>
<path d="M391 35.8393C391 36.9483 390.169 37.7801 389.06 37.7801C387.951 37.7801 387.12 36.9483 387.12 35.8393C387.12 34.7302 387.951 33.8984 389.06 33.8984C390.076 33.8984 391 34.8226 391 35.8393Z" fill="#FFCF2D"/>
<path d="M258.88 49.6098C258.88 50.7189 258.049 51.5506 256.94 51.5506C255.832 51.5506 255 50.7189 255 49.6098C255 48.5007 255.832 47.6689 256.94 47.6689C258.049 47.6689 258.88 48.5007 258.88 49.6098Z" fill="#FFCF2D"/>
<path d="M275.419 49.6098C275.419 50.7189 274.587 51.5506 273.478 51.5506C272.37 51.5506 271.538 50.7189 271.538 49.6098C271.538 48.5007 272.37 47.6689 273.478 47.6689C274.495 47.6689 275.419 48.5007 275.419 49.6098Z" fill="#FFCF2D"/>
<path d="M291.864 49.6098C291.864 50.7189 291.033 51.5506 289.924 51.5506C288.815 51.5506 287.984 50.7189 287.984 49.6098C287.984 48.5007 288.815 47.6689 289.924 47.6689C291.033 47.6689 291.864 48.5007 291.864 49.6098Z" fill="#FFCF2D"/>
<path d="M306.462 51.5506C307.534 51.5506 308.402 50.6817 308.402 49.6098C308.402 48.5379 307.534 47.6689 306.462 47.6689C305.391 47.6689 304.522 48.5379 304.522 49.6098C304.522 50.6817 305.391 51.5506 306.462 51.5506Z" fill="#FFCF2D"/>
<path d="M324.94 49.6098C324.94 50.7189 324.108 51.5506 323 51.5506C321.891 51.5506 321.06 50.7189 321.06 49.6098C321.06 48.5007 321.891 47.6689 323 47.6689C324.016 47.6689 324.94 48.5007 324.94 49.6098Z" fill="#FFCF2D"/>
<path d="M341.478 49.6098C341.478 50.7189 340.647 51.5506 339.538 51.5506C338.429 51.5506 337.598 50.7189 337.598 49.6098C337.598 48.5007 338.429 47.6689 339.538 47.6689C340.647 47.6689 341.478 48.5007 341.478 49.6098Z" fill="#FFCF2D"/>
<path d="M357.924 49.6098C357.924 50.7189 357.092 51.5506 355.984 51.5506C354.875 51.5506 354.043 50.7189 354.043 49.6098C354.043 48.5007 354.875 47.6689 355.984 47.6689C357.092 47.6689 357.924 48.5007 357.924 49.6098Z" fill="#FFCF2D"/>
<path d="M372.522 51.5506C373.593 51.5506 374.462 50.6817 374.462 49.6098C374.462 48.5379 373.593 47.6689 372.522 47.6689C371.45 47.6689 370.582 48.5379 370.582 49.6098C370.582 50.6817 371.45 51.5506 372.522 51.5506Z" fill="#FFCF2D"/>
<path d="M391 49.6098C391 50.7189 390.169 51.5506 389.06 51.5506C387.951 51.5506 387.12 50.7189 387.12 49.6098C387.12 48.5007 387.951 47.6689 389.06 47.6689C390.076 47.6689 391 48.5007 391 49.6098Z" fill="#FFCF2D"/>
<path d="M258.88 63.3813C258.88 64.4903 258.049 65.3221 256.94 65.3221C255.832 65.3221 255 64.4903 255 63.3813C255 62.2722 255.832 61.4404 256.94 61.4404C258.049 61.4404 258.88 62.2722 258.88 63.3813Z" fill="#FFCF2D"/>
<path d="M275.419 63.3813C275.419 64.4903 274.587 65.3221 273.478 65.3221C272.37 65.3221 271.538 64.4903 271.538 63.3813C271.538 62.2722 272.37 61.4404 273.478 61.4404C274.495 61.4404 275.419 62.2722 275.419 63.3813Z" fill="#FFCF2D"/>
<path d="M291.864 63.3813C291.864 64.4903 291.033 65.3221 289.924 65.3221C288.815 65.3221 287.984 64.4903 287.984 63.3813C287.984 62.2722 288.815 61.4404 289.924 61.4404C291.033 61.4404 291.864 62.2722 291.864 63.3813Z" fill="#FFCF2D"/>
<path d="M308.402 63.3813C308.402 64.4903 307.571 65.3221 306.462 65.3221C305.353 65.3221 304.522 64.4903 304.522 63.3813C304.522 62.2722 305.353 61.4404 306.462 61.4404C307.571 61.4404 308.402 62.2722 308.402 63.3813Z" fill="#FFCF2D"/>
<path d="M324.94 63.3813C324.94 64.4903 324.108 65.3221 323 65.3221C321.891 65.3221 321.06 64.4903 321.06 63.3813C321.06 62.2722 321.891 61.4404 323 61.4404C324.016 61.4404 324.94 62.2722 324.94 63.3813Z" fill="#FFCF2D"/>
<path d="M341.478 63.3813C341.478 64.4903 340.647 65.3221 339.538 65.3221C338.429 65.3221 337.598 64.4903 337.598 63.3813C337.598 62.2722 338.429 61.4404 339.538 61.4404C340.647 61.4404 341.478 62.2722 341.478 63.3813Z" fill="#FFCF2D"/>
<path d="M357.924 63.3813C357.924 64.4903 357.092 65.3221 355.984 65.3221C354.875 65.3221 354.043 64.4903 354.043 63.3813C354.043 62.2722 354.875 61.4404 355.984 61.4404C357.092 61.4404 357.924 62.2722 357.924 63.3813Z" fill="#FFCF2D"/>
<path d="M374.462 63.3813C374.462 64.4903 373.63 65.3221 372.522 65.3221C371.413 65.3221 370.582 64.4903 370.582 63.3813C370.582 62.2722 371.413 61.4404 372.522 61.4404C373.63 61.4404 374.462 62.2722 374.462 63.3813Z" fill="#FFCF2D"/>
<path d="M391 63.3813C391 64.4903 390.169 65.3221 389.06 65.3221C387.951 65.3221 387.12 64.4903 387.12 63.3813C387.12 62.2722 387.951 61.4404 389.06 61.4404C390.076 61.4404 391 62.2722 391 63.3813Z" fill="#FFCF2D"/>
<path d="M258.88 77.059C258.88 78.1681 258.049 78.9999 256.94 78.9999C255.832 78.9999 255 78.1681 255 77.059C255 75.95 255.832 75.1182 256.94 75.1182C258.049 75.1182 258.88 76.0424 258.88 77.059Z" fill="#FFCF2D"/>
<path d="M275.419 77.059C275.419 78.1681 274.587 78.9999 273.478 78.9999C272.37 78.9999 271.538 78.1681 271.538 77.059C271.538 75.95 272.37 75.1182 273.478 75.1182C274.495 75.1182 275.419 76.0424 275.419 77.059Z" fill="#FFCF2D"/>
<path d="M291.864 77.059C291.864 78.1681 291.033 78.9999 289.924 78.9999C288.815 78.9999 287.984 78.1681 287.984 77.059C287.984 75.95 288.815 75.1182 289.924 75.1182C291.033 75.1182 291.864 76.0424 291.864 77.059Z" fill="#FFCF2D"/>
<path d="M308.402 77.059C308.402 78.1681 307.571 78.9999 306.462 78.9999C305.353 78.9999 304.522 78.1681 304.522 77.059C304.522 75.95 305.353 75.1182 306.462 75.1182C307.571 75.1182 308.402 76.0424 308.402 77.059Z" fill="#FFCF2D"/>
<path d="M324.94 77.059C324.94 78.1681 324.108 78.9999 323 78.9999C321.891 78.9999 321.06 78.1681 321.06 77.059C321.06 75.95 321.891 75.1182 323 75.1182C324.016 75.1182 324.94 76.0424 324.94 77.059Z" fill="#FFCF2D"/>
<path d="M341.478 77.059C341.478 78.1681 340.647 78.9999 339.538 78.9999C338.429 78.9999 337.598 78.1681 337.598 77.059C337.598 75.95 338.429 75.1182 339.538 75.1182C340.647 75.1182 341.478 76.0424 341.478 77.059Z" fill="#FFCF2D"/>
<path d="M357.924 77.059C357.924 78.1681 357.092 78.9999 355.984 78.9999C354.875 78.9999 354.043 78.1681 354.043 77.059C354.043 75.95 354.875 75.1182 355.984 75.1182C357.092 75.1182 357.924 76.0424 357.924 77.059Z" fill="#FFCF2D"/>
<path d="M374.462 77.059C374.462 78.1681 373.63 78.9999 372.522 78.9999C371.413 78.9999 370.582 78.1681 370.582 77.059C370.582 75.95 371.413 75.1182 372.522 75.1182C373.63 75.1182 374.462 76.0424 374.462 77.059Z" fill="#FFCF2D"/>
<path d="M391 77.059C391 78.1681 390.169 78.9999 389.06 78.9999C387.951 78.9999 387.12 78.1681 387.12 77.059C387.12 75.95 387.951 75.1182 389.06 75.1182C390.076 75.1182 391 76.0424 391 77.059Z" fill="#FFCF2D"/>
</g>
<defs>
<clipPath id="clip0_7404_2490">
<rect width="136" height="100" fill="white" transform="translate(255 -21)"/>
</clipPath>
</defs>
</svg>
