<svg width="1230" height="243" viewBox="0 0 1230 243" fill="none" xmlns="http://www.w3.org/2000/svg">
<g clip-path="url(#clip0_2282_225)">
<g opacity="0.2">
<path d="M756.581 -166C691.581 -166 639 -113.419 639 -48.4193C639 16.4194 691.581 69.1613 756.581 69.1613C821.419 69.1613 874.161 16.5806 874.161 -48.4193C874 -113.419 821.419 -166 756.581 -166ZM756.581 61.5807C695.774 61.5807 646.581 12.3871 646.581 -48.4193C646.581 -109.226 695.774 -158.419 756.581 -158.419C817.387 -158.419 866.581 -109.226 866.581 -48.4193C866.581 12.2258 817.226 61.5807 756.581 61.5807Z" fill="white"/>
<path d="M756.582 -140.678C705.775 -140.678 664.485 -99.3874 664.485 -48.581C664.485 2.22548 705.775 43.5158 756.582 43.5158C807.388 43.5158 848.678 2.38678 848.678 -48.4197C848.678 -99.3874 807.388 -140.678 756.582 -140.678ZM756.582 29.4836C713.517 29.4836 678.517 -5.51645 678.517 -48.581C678.517 -91.6455 713.517 -126.645 756.582 -126.645C799.646 -126.645 834.646 -91.6455 834.646 -48.581C834.646 -5.51645 799.646 29.4836 756.582 29.4836Z" fill="white"/>
</g>
</g>
<defs>
<clipPath id="clip0_2282_225">
<rect width="1230" height="243" fill="white"/>
</clipPath>
</defs>
</svg>
