<svg width="1194" height="583" viewBox="0 0 1194 583" fill="none" xmlns="http://www.w3.org/2000/svg">
<path d="M272.08 508.86C272.08 510.025 271.206 510.898 270.04 510.898C268.874 510.898 268 510.025 268 508.86C268 507.696 268.874 506.822 270.04 506.822C271.206 506.822 272.08 507.793 272.08 508.86Z" fill="white"/>
<path d="M289.469 508.86C289.469 510.025 288.595 510.898 287.429 510.898C286.263 510.898 285.389 510.025 285.389 508.86C285.389 507.696 286.263 506.822 287.429 506.822C288.498 506.822 289.469 507.793 289.469 508.86Z" fill="white"/>
<path d="M306.762 508.86C306.762 510.025 305.887 510.898 304.721 510.898C303.556 510.898 302.681 510.025 302.681 508.86C302.681 507.696 303.556 506.822 304.721 506.822C305.887 506.822 306.762 507.793 306.762 508.86Z" fill="white"/>
<path d="M324.151 508.86C324.151 510.025 323.277 510.898 322.111 510.898C320.945 510.898 320.071 510.025 320.071 508.86C320.071 507.696 320.945 506.822 322.111 506.822C323.277 506.822 324.151 507.793 324.151 508.86Z" fill="white"/>
<path d="M341.54 508.86C341.54 510.025 340.666 510.898 339.5 510.898C338.334 510.898 337.46 510.025 337.46 508.86C337.46 507.696 338.334 506.822 339.5 506.822C340.569 506.822 341.54 507.793 341.54 508.86Z" fill="white"/>
<path d="M358.929 508.86C358.929 510.025 358.055 510.898 356.889 510.898C355.723 510.898 354.849 510.025 354.849 508.86C354.849 507.696 355.723 506.822 356.889 506.822C358.055 506.822 358.929 507.793 358.929 508.86Z" fill="white"/>
<path d="M376.222 508.86C376.222 510.025 375.347 510.898 374.181 510.898C373.016 510.898 372.141 510.025 372.141 508.86C372.141 507.696 373.016 506.822 374.181 506.822C375.347 506.822 376.222 507.793 376.222 508.86Z" fill="white"/>
<path d="M393.611 508.86C393.611 510.025 392.737 510.898 391.571 510.898C390.405 510.898 389.531 510.025 389.531 508.86C389.531 507.696 390.405 506.822 391.571 506.822C392.737 506.822 393.611 507.793 393.611 508.86Z" fill="white"/>
<path d="M411 508.86C411 510.025 410.126 510.898 408.96 510.898C407.794 510.898 406.92 510.025 406.92 508.86C406.92 507.696 407.794 506.822 408.96 506.822C410.029 506.822 411 507.793 411 508.86Z" fill="white"/>
<path d="M272.08 523.319C272.08 524.484 271.206 525.357 270.04 525.357C268.874 525.357 268 524.484 268 523.319C268 522.155 268.874 521.281 270.04 521.281C271.206 521.281 272.08 522.155 272.08 523.319Z" fill="white"/>
<path d="M289.469 523.319C289.469 524.484 288.595 525.357 287.429 525.357C286.263 525.357 285.389 524.484 285.389 523.319C285.389 522.155 286.263 521.281 287.429 521.281C288.498 521.281 289.469 522.155 289.469 523.319Z" fill="white"/>
<path d="M306.762 523.319C306.762 524.484 305.887 525.357 304.721 525.357C303.556 525.357 302.681 524.484 302.681 523.319C302.681 522.155 303.556 521.281 304.721 521.281C305.887 521.281 306.762 522.155 306.762 523.319Z" fill="white"/>
<path d="M324.151 523.319C324.151 524.484 323.277 525.357 322.111 525.357C320.945 525.357 320.071 524.484 320.071 523.319C320.071 522.155 320.945 521.281 322.111 521.281C323.277 521.281 324.151 522.155 324.151 523.319Z" fill="white"/>
<path d="M341.54 523.319C341.54 524.484 340.666 525.357 339.5 525.357C338.334 525.357 337.46 524.484 337.46 523.319C337.46 522.155 338.334 521.281 339.5 521.281C340.569 521.281 341.54 522.155 341.54 523.319Z" fill="white"/>
<path d="M358.929 523.319C358.929 524.484 358.055 525.357 356.889 525.357C355.723 525.357 354.849 524.484 354.849 523.319C354.849 522.155 355.723 521.281 356.889 521.281C358.055 521.281 358.929 522.155 358.929 523.319Z" fill="white"/>
<path d="M376.222 523.319C376.222 524.484 375.347 525.357 374.181 525.357C373.016 525.357 372.141 524.484 372.141 523.319C372.141 522.155 373.016 521.281 374.181 521.281C375.347 521.281 376.222 522.155 376.222 523.319Z" fill="white"/>
<path d="M393.611 523.319C393.611 524.484 392.737 525.357 391.571 525.357C390.405 525.357 389.531 524.484 389.531 523.319C389.531 522.155 390.405 521.281 391.571 521.281C392.737 521.281 393.611 522.155 393.611 523.319Z" fill="white"/>
<path d="M411 523.319C411 524.484 410.126 525.357 408.96 525.357C407.794 525.357 406.92 524.484 406.92 523.319C406.92 522.155 407.794 521.281 408.96 521.281C410.029 521.281 411 522.155 411 523.319Z" fill="white"/>
<path d="M272.08 480.038C272.08 481.202 271.206 482.076 270.04 482.076C268.874 482.076 268 481.202 268 480.038C268 478.873 268.874 478 270.04 478C271.206 478 272.08 478.873 272.08 480.038Z" fill="white"/>
<path d="M289.469 480.038C289.469 481.202 288.595 482.076 287.429 482.076C286.263 482.076 285.389 481.202 285.389 480.038C285.389 478.873 286.263 478 287.429 478C288.498 478 289.469 478.873 289.469 480.038Z" fill="white"/>
<path d="M306.762 480.038C306.762 481.202 305.887 482.076 304.721 482.076C303.556 482.076 302.681 481.202 302.681 480.038C302.681 478.873 303.653 478 304.721 478C305.887 478 306.762 478.873 306.762 480.038Z" fill="white"/>
<path d="M324.151 480.038C324.151 481.202 323.277 482.076 322.111 482.076C320.945 482.076 320.071 481.202 320.071 480.038C320.071 478.873 321.042 478 322.111 478C323.179 478 324.151 478.873 324.151 480.038Z" fill="white"/>
<path d="M341.54 480.038C341.54 481.202 340.666 482.076 339.5 482.076C338.334 482.076 337.46 481.202 337.46 480.038C337.46 478.873 338.334 478 339.5 478C340.569 478 341.54 478.873 341.54 480.038Z" fill="white"/>
<path d="M358.929 480.038C358.929 481.202 358.055 482.076 356.889 482.076C355.723 482.076 354.849 481.202 354.849 480.038C354.849 478.873 355.723 478 356.889 478C358.055 478 358.929 478.873 358.929 480.038Z" fill="white"/>
<path d="M376.222 480.038C376.222 481.202 375.347 482.076 374.181 482.076C373.016 482.076 372.141 481.202 372.141 480.038C372.141 478.873 373.016 478 374.181 478C375.347 478 376.222 478.873 376.222 480.038Z" fill="white"/>
<path d="M393.611 480.038C393.611 481.202 392.737 482.076 391.571 482.076C390.405 482.076 389.531 481.202 389.531 480.038C389.531 478.873 390.405 478 391.571 478C392.737 478 393.611 478.873 393.611 480.038Z" fill="white"/>
<path d="M411 480.038C411 481.202 410.126 482.076 408.96 482.076C407.794 482.076 406.92 481.202 406.92 480.038C406.92 478.873 407.794 478 408.96 478C410.029 478 411 478.873 411 480.038Z" fill="white"/>
<path d="M272.08 494.497C272.08 495.661 271.206 496.535 270.04 496.535C268.874 496.535 268 495.564 268 494.497C268 493.332 268.874 492.459 270.04 492.459C271.206 492.459 272.08 493.332 272.08 494.497Z" fill="white"/>
<path d="M289.469 494.497C289.469 495.661 288.595 496.535 287.429 496.535C286.263 496.535 285.389 495.661 285.389 494.497C285.389 493.332 286.263 492.459 287.429 492.459C288.498 492.459 289.469 493.332 289.469 494.497Z" fill="white"/>
<path d="M306.762 494.497C306.762 495.661 305.887 496.535 304.721 496.535C303.556 496.535 302.681 495.661 302.681 494.497C302.681 493.332 303.556 492.459 304.721 492.459C305.887 492.459 306.762 493.332 306.762 494.497Z" fill="white"/>
<path d="M324.151 494.497C324.151 495.661 323.277 496.535 322.111 496.535C320.945 496.535 320.071 495.661 320.071 494.497C320.071 493.332 320.945 492.459 322.111 492.459C323.277 492.459 324.151 493.332 324.151 494.497Z" fill="white"/>
<path d="M341.54 494.497C341.54 495.661 340.666 496.535 339.5 496.535C338.334 496.535 337.46 495.661 337.46 494.497C337.46 493.332 338.334 492.459 339.5 492.459C340.569 492.459 341.54 493.332 341.54 494.497Z" fill="white"/>
<path d="M358.929 494.497C358.929 495.661 358.055 496.535 356.889 496.535C355.723 496.535 354.849 495.661 354.849 494.497C354.849 493.332 355.723 492.459 356.889 492.459C358.055 492.459 358.929 493.332 358.929 494.497Z" fill="white"/>
<path d="M376.222 494.497C376.222 495.661 375.347 496.535 374.181 496.535C373.016 496.535 372.141 495.661 372.141 494.497C372.141 493.332 373.016 492.459 374.181 492.459C375.347 492.459 376.222 493.332 376.222 494.497Z" fill="white"/>
<path d="M393.611 494.497C393.611 495.661 392.737 496.535 391.571 496.535C390.405 496.535 389.531 495.661 389.531 494.497C389.531 493.332 390.405 492.459 391.571 492.459C392.737 492.459 393.611 493.332 393.611 494.497Z" fill="white"/>
<path d="M411 494.497C411 495.661 410.126 496.535 408.96 496.535C407.794 496.535 406.92 495.661 406.92 494.497C406.92 493.332 407.794 492.459 408.96 492.459C410.029 492.459 411 493.332 411 494.497Z" fill="white"/>
<path d="M272.08 537.68C272.08 538.845 271.206 539.718 270.04 539.718C268.874 539.718 268 538.845 268 537.68C268 536.516 268.874 535.643 270.04 535.643C271.206 535.643 272.08 536.613 272.08 537.68Z" fill="white"/>
<path d="M289.469 537.68C289.469 538.845 288.595 539.718 287.429 539.718C286.263 539.718 285.389 538.845 285.389 537.68C285.389 536.516 286.263 535.643 287.429 535.643C288.498 535.643 289.469 536.613 289.469 537.68Z" fill="white"/>
<path d="M306.762 537.68C306.762 538.845 305.887 539.718 304.721 539.718C303.556 539.718 302.681 538.845 302.681 537.68C302.681 536.516 303.556 535.643 304.721 535.643C305.887 535.643 306.762 536.613 306.762 537.68Z" fill="white"/>
<path d="M324.151 537.68C324.151 538.845 323.277 539.718 322.111 539.718C320.945 539.718 320.071 538.845 320.071 537.68C320.071 536.516 320.945 535.643 322.111 535.643C323.277 535.643 324.151 536.613 324.151 537.68Z" fill="white"/>
<path d="M341.54 537.68C341.54 538.845 340.666 539.718 339.5 539.718C338.334 539.718 337.46 538.845 337.46 537.68C337.46 536.516 338.334 535.643 339.5 535.643C340.569 535.643 341.54 536.613 341.54 537.68Z" fill="white"/>
<path d="M358.929 537.68C358.929 538.845 358.055 539.718 356.889 539.718C355.723 539.718 354.849 538.845 354.849 537.68C354.849 536.516 355.723 535.643 356.889 535.643C358.055 535.643 358.929 536.613 358.929 537.68Z" fill="white"/>
<path d="M376.222 537.68C376.222 538.845 375.347 539.718 374.181 539.718C373.016 539.718 372.141 538.845 372.141 537.68C372.141 536.516 373.016 535.643 374.181 535.643C375.347 535.643 376.222 536.613 376.222 537.68Z" fill="white"/>
<path d="M393.611 537.68C393.611 538.845 392.737 539.718 391.571 539.718C390.405 539.718 389.531 538.845 389.531 537.68C389.531 536.516 390.405 535.643 391.571 535.643C392.737 535.643 393.611 536.613 393.611 537.68Z" fill="white"/>
<path d="M411 537.68C411 538.845 410.126 539.718 408.96 539.718C407.794 539.718 406.92 538.845 406.92 537.68C406.92 536.516 407.794 535.643 408.96 535.643C410.029 535.643 411 536.613 411 537.68Z" fill="white"/>
<path d="M272.08 552.139C272.08 553.304 271.206 554.177 270.04 554.177C268.874 554.177 268 553.304 268 552.139C268 550.975 268.874 550.102 270.04 550.102C271.206 550.102 272.08 550.975 272.08 552.139Z" fill="white"/>
<path d="M289.469 552.139C289.469 553.304 288.595 554.177 287.429 554.177C286.263 554.177 285.389 553.304 285.389 552.139C285.389 550.975 286.263 550.102 287.429 550.102C288.498 550.102 289.469 550.975 289.469 552.139Z" fill="white"/>
<path d="M306.762 552.139C306.762 553.304 305.887 554.177 304.721 554.177C303.556 554.177 302.681 553.304 302.681 552.139C302.681 550.975 303.556 550.102 304.721 550.102C305.887 550.102 306.762 550.975 306.762 552.139Z" fill="white"/>
<path d="M322.111 554.177C323.238 554.177 324.151 553.265 324.151 552.139C324.151 551.014 323.238 550.102 322.111 550.102C320.984 550.102 320.071 551.014 320.071 552.139C320.071 553.265 320.984 554.177 322.111 554.177Z" fill="white"/>
<path d="M341.54 552.139C341.54 553.304 340.666 554.177 339.5 554.177C338.334 554.177 337.46 553.304 337.46 552.139C337.46 550.975 338.334 550.102 339.5 550.102C340.569 550.102 341.54 550.975 341.54 552.139Z" fill="white"/>
<path d="M358.929 552.139C358.929 553.304 358.055 554.177 356.889 554.177C355.723 554.177 354.849 553.304 354.849 552.139C354.849 550.975 355.723 550.102 356.889 550.102C358.055 550.102 358.929 550.975 358.929 552.139Z" fill="white"/>
<path d="M376.222 552.139C376.222 553.304 375.347 554.177 374.181 554.177C373.016 554.177 372.141 553.304 372.141 552.139C372.141 550.975 373.016 550.102 374.181 550.102C375.347 550.102 376.222 550.975 376.222 552.139Z" fill="white"/>
<path d="M391.571 554.177C392.698 554.177 393.611 553.265 393.611 552.139C393.611 551.014 392.698 550.102 391.571 550.102C390.444 550.102 389.531 551.014 389.531 552.139C389.531 553.265 390.444 554.177 391.571 554.177Z" fill="white"/>
<path d="M411 552.139C411 553.304 410.126 554.177 408.96 554.177C407.794 554.177 406.92 553.304 406.92 552.139C406.92 550.975 407.794 550.102 408.96 550.102C410.029 550.102 411 550.975 411 552.139Z" fill="white"/>
<path d="M272.08 566.6C272.08 567.765 271.206 568.638 270.04 568.638C268.874 568.638 268 567.765 268 566.6C268 565.436 268.874 564.562 270.04 564.562C271.206 564.562 272.08 565.436 272.08 566.6Z" fill="white"/>
<path d="M289.469 566.6C289.469 567.765 288.595 568.638 287.429 568.638C286.263 568.638 285.389 567.765 285.389 566.6C285.389 565.436 286.263 564.562 287.429 564.562C288.498 564.562 289.469 565.436 289.469 566.6Z" fill="white"/>
<path d="M306.762 566.6C306.762 567.765 305.887 568.638 304.721 568.638C303.556 568.638 302.681 567.765 302.681 566.6C302.681 565.436 303.556 564.562 304.721 564.562C305.887 564.562 306.762 565.436 306.762 566.6Z" fill="white"/>
<path d="M324.151 566.6C324.151 567.765 323.277 568.638 322.111 568.638C320.945 568.638 320.071 567.765 320.071 566.6C320.071 565.436 320.945 564.562 322.111 564.562C323.277 564.562 324.151 565.436 324.151 566.6Z" fill="white"/>
<path d="M341.54 566.6C341.54 567.765 340.666 568.638 339.5 568.638C338.334 568.638 337.46 567.765 337.46 566.6C337.46 565.436 338.334 564.562 339.5 564.562C340.569 564.562 341.54 565.436 341.54 566.6Z" fill="white"/>
<path d="M358.929 566.6C358.929 567.765 358.055 568.638 356.889 568.638C355.723 568.638 354.849 567.765 354.849 566.6C354.849 565.436 355.723 564.562 356.889 564.562C358.055 564.562 358.929 565.436 358.929 566.6Z" fill="white"/>
<path d="M376.222 566.6C376.222 567.765 375.347 568.638 374.181 568.638C373.016 568.638 372.141 567.765 372.141 566.6C372.141 565.436 373.016 564.562 374.181 564.562C375.347 564.562 376.222 565.436 376.222 566.6Z" fill="white"/>
<path d="M393.611 566.6C393.611 567.765 392.737 568.638 391.571 568.638C390.405 568.638 389.531 567.765 389.531 566.6C389.531 565.436 390.405 564.562 391.571 564.562C392.737 564.562 393.611 565.436 393.611 566.6Z" fill="white"/>
<path d="M411 566.6C411 567.765 410.126 568.638 408.96 568.638C407.794 568.638 406.92 567.765 406.92 566.6C406.92 565.436 407.794 564.562 408.96 564.562C410.029 564.562 411 565.436 411 566.6Z" fill="white"/>
<path d="M272.08 580.962C272.08 582.126 271.206 583 270.04 583C268.874 583 268 582.126 268 580.962C268 579.797 268.874 578.924 270.04 578.924C271.206 578.924 272.08 579.894 272.08 580.962Z" fill="white"/>
<path d="M289.469 580.962C289.469 582.126 288.595 583 287.429 583C286.263 583 285.389 582.126 285.389 580.962C285.389 579.797 286.263 578.924 287.429 578.924C288.498 578.924 289.469 579.894 289.469 580.962Z" fill="white"/>
<path d="M306.762 580.962C306.762 582.126 305.887 583 304.721 583C303.556 583 302.681 582.126 302.681 580.962C302.681 579.797 303.556 578.924 304.721 578.924C305.887 578.924 306.762 579.894 306.762 580.962Z" fill="white"/>
<path d="M324.151 580.962C324.151 582.126 323.277 583 322.111 583C320.945 583 320.071 582.126 320.071 580.962C320.071 579.797 320.945 578.924 322.111 578.924C323.277 578.924 324.151 579.894 324.151 580.962Z" fill="white"/>
<path d="M341.54 580.962C341.54 582.126 340.666 583 339.5 583C338.334 583 337.46 582.126 337.46 580.962C337.46 579.797 338.334 578.924 339.5 578.924C340.569 578.924 341.54 579.894 341.54 580.962Z" fill="white"/>
<path d="M358.929 580.962C358.929 582.126 358.055 583 356.889 583C355.723 583 354.849 582.126 354.849 580.962C354.849 579.797 355.723 578.924 356.889 578.924C358.055 578.924 358.929 579.894 358.929 580.962Z" fill="white"/>
<path d="M376.222 580.962C376.222 582.126 375.347 583 374.181 583C373.016 583 372.141 582.126 372.141 580.962C372.141 579.797 373.016 578.924 374.181 578.924C375.347 578.924 376.222 579.894 376.222 580.962Z" fill="white"/>
<path d="M393.611 580.962C393.611 582.126 392.737 583 391.571 583C390.405 583 389.531 582.126 389.531 580.962C389.531 579.797 390.405 578.924 391.571 578.924C392.737 578.924 393.611 579.894 393.611 580.962Z" fill="white"/>
<path d="M411 580.962C411 582.126 410.126 583 408.96 583C407.794 583 406.92 582.126 406.92 580.962C406.92 579.797 407.794 578.924 408.96 578.924C410.029 578.924 411 579.894 411 580.962Z" fill="white"/>
<g opacity="0.6">
<path d="M1172.83 101.225C1183.29 101.225 1191.8 92.6348 1191.8 82.0897C1191.8 71.5446 1183.29 62.9544 1172.83 62.9544L1172.83 101.225Z" fill="white"/>
<path d="M1143.24 101.225C1153.7 101.225 1162.21 92.6348 1162.21 82.0897C1162.21 71.5446 1153.7 62.9544 1143.24 62.9544L1143.24 101.225Z" fill="white"/>
<path d="M1113.65 101.225C1124.1 101.225 1132.62 92.6348 1132.62 82.0897C1132.62 71.5446 1124.1 62.9544 1113.65 62.9544L1113.65 101.225Z" fill="white"/>
</g>
<g opacity="0.6" clip-path="url(#clip0_7537_2365)">
<path d="M57.5395 0C25.731 0 0 25.731 0 57.5395C0 89.2691 25.731 115.079 57.5395 115.079C89.2691 115.079 115.079 89.348 115.079 57.5395C115 25.731 89.2691 0 57.5395 0ZM57.5395 111.369C27.7831 111.369 3.70968 87.2958 3.70968 57.5395C3.70968 27.7831 27.7831 3.70968 57.5395 3.70968C87.2958 3.70968 111.369 27.7831 111.369 57.5395C111.369 87.2169 87.2169 111.369 57.5395 111.369Z" fill="white"/>
<path d="M57.5393 12.3926C32.6766 12.3926 12.4707 32.5985 12.4707 57.4612C12.4707 82.3239 32.6766 102.53 57.5393 102.53C82.4021 102.53 102.608 82.4029 102.608 57.5401C102.608 32.5985 82.4021 12.3926 57.5393 12.3926ZM57.5393 95.663C36.4652 95.663 19.3376 78.5353 19.3376 57.4612C19.3376 36.3871 36.4652 19.2594 57.5393 19.2594C78.6135 19.2594 95.7411 36.3871 95.7411 57.4612C95.7411 78.5353 78.6135 95.663 57.5393 95.663Z" fill="white"/>
<path d="M57.5399 32.2031C43.5694 32.2031 32.2036 43.5689 32.2036 57.5394C32.2036 71.5099 43.4905 82.8757 57.5399 82.8757C71.5104 82.8757 82.8762 71.5099 82.8762 57.5394C82.7973 43.5689 71.5104 32.2031 57.5399 32.2031ZM57.5399 71.1153C50.0416 71.1153 43.9641 65.0377 43.9641 57.5394C43.9641 50.0411 50.0416 43.9636 57.5399 43.9636C65.0382 43.9636 71.1158 50.0411 71.1158 57.5394C71.1158 65.0377 65.0382 71.1153 57.5399 71.1153Z" fill="white"/>
</g>
<defs>
<clipPath id="clip0_7537_2365">
<rect width="115" height="115" fill="white"/>
</clipPath>
</defs>
</svg>
