<svg width="1830" height="258" viewBox="0 0 1830 258" fill="none" xmlns="http://www.w3.org/2000/svg">
<g opacity="0.6">
<path d="M79.1688 207.05C88.4518 201.691 91.6511 189.768 86.2955 180.492C80.9398 171.216 69.0151 168.025 59.7321 173.385L79.1688 207.05Z" fill="white"/>
<path d="M52.8895 222.222C62.1725 216.863 65.3718 204.94 60.0162 195.664C54.6605 186.388 42.7358 183.197 33.4528 188.557L52.8895 222.222Z" fill="white"/>
<path d="M26.6099 237.394C35.893 232.034 39.0922 220.112 33.7366 210.836C28.381 201.56 16.4562 198.369 7.17322 203.729L26.6099 237.394Z" fill="white"/>
</g>
<g opacity="0.4" clip-path="url(#clip0_7537_2364)">
<path d="M1827.09 0C1755.73 0 1698 57.7268 1698 129.089C1698 200.273 1755.73 258.177 1827.09 258.177C1898.27 258.177 1956.18 200.45 1956.18 129.089C1956 57.7268 1898.27 0 1827.09 0ZM1827.09 249.855C1760.33 249.855 1706.32 195.846 1706.32 129.089C1706.32 62.3308 1760.33 8.32258 1827.09 8.32258C1893.85 8.32258 1947.85 62.3308 1947.85 129.089C1947.85 195.669 1893.67 249.855 1827.09 249.855Z" fill="white"/>
<path d="M1827.09 27.8008C1771.31 27.8008 1725.98 73.1323 1725.98 128.911C1725.98 184.69 1771.31 230.022 1827.09 230.022C1882.87 230.022 1928.2 184.867 1928.2 129.088C1928.2 73.1323 1882.87 27.8008 1827.09 27.8008ZM1827.09 214.616C1779.81 214.616 1741.38 176.191 1741.38 128.911C1741.38 81.6319 1779.81 43.2064 1827.09 43.2064C1874.37 43.2064 1912.79 81.6319 1912.79 128.911C1912.79 176.191 1874.37 214.616 1827.09 214.616Z" fill="white"/>
</g>
<defs>
<clipPath id="clip0_7537_2364">
<rect width="258" height="258" fill="white" transform="translate(1698)"/>
</clipPath>
</defs>
</svg>
