<svg xmlns="http://www.w3.org/2000/svg" width="1920" height="1072" viewBox="0 0 1920 1072" fill="none">
<path opacity="0.2" d="M0 -8H1920V1072H0V-8Z" fill="none"/>
<g clip-path="url(#clip0_2495_2543)">
<g opacity="0.2" clip-path="url(#clip1_2495_2543)">
<path d="M29.0975 884C-49.4557 884 -113 947.544 -113 1026.1C-113 1104.46 -49.4557 1168.19 29.0975 1168.19C107.456 1168.19 171.195 1104.65 171.195 1026.1C171 947.544 107.456 884 29.0975 884ZM29.0975 1159.03C-44.3878 1159.03 -103.839 1099.58 -103.839 1026.1C-103.839 952.612 -44.3878 893.161 29.0975 893.161C102.583 893.161 162.034 952.612 162.034 1026.1C162.034 1099.39 102.388 1159.03 29.0975 1159.03Z" fill="white"/>
<path d="M29.0988 914.603C-32.3014 914.603 -82.2012 964.502 -82.2012 1025.9C-82.2012 1087.3 -32.3014 1137.2 29.0988 1137.2C90.4989 1137.2 140.399 1087.5 140.399 1026.1C140.399 964.502 90.4989 914.603 29.0988 914.603ZM29.0988 1120.24C-22.9452 1120.24 -65.243 1077.95 -65.243 1025.9C-65.243 973.859 -22.9452 931.561 29.0988 931.561C81.1427 931.561 123.441 973.859 123.441 1025.9C123.441 1077.95 81.1427 1120.24 29.0988 1120.24Z" fill="white"/>
<path d="M29.098 963.527C-5.40304 963.527 -33.4717 991.596 -33.4717 1026.1C-33.4717 1060.6 -5.59796 1088.67 29.098 1088.67C63.599 1088.67 91.6677 1060.6 91.6677 1026.1C91.4727 991.596 63.599 963.527 29.098 963.527ZM29.098 1059.62C10.5805 1059.62 -4.42843 1044.61 -4.42843 1026.1C-4.42843 1007.58 10.5805 992.571 29.098 992.571C47.6155 992.571 62.6244 1007.58 62.6244 1026.1C62.6244 1044.61 47.6155 1059.62 29.098 1059.62Z" fill="white"/>
</g>
<g opacity="0.8">
<path d="M1767.34 777.264C1767.34 778.784 1766.19 779.923 1764.67 779.923C1763.14 779.923 1762 778.784 1762 777.264C1762 775.745 1763.14 774.605 1764.67 774.605C1766.19 774.605 1767.34 775.872 1767.34 777.264Z" fill="white"/>
<path d="M1790.08 777.264C1790.08 778.784 1788.93 779.923 1787.41 779.923C1785.88 779.923 1784.74 778.784 1784.74 777.264C1784.74 775.745 1785.88 774.605 1787.41 774.605C1788.8 774.605 1790.08 775.872 1790.08 777.264Z" fill="white"/>
<path d="M1812.69 777.264C1812.69 778.784 1811.54 779.923 1810.02 779.923C1808.5 779.923 1807.35 778.784 1807.35 777.264C1807.35 775.745 1808.5 774.605 1810.02 774.605C1811.54 774.605 1812.69 775.872 1812.69 777.264Z" fill="white"/>
<path d="M1835.43 777.264C1835.43 778.784 1834.28 779.923 1832.76 779.923C1831.24 779.923 1830.09 778.784 1830.09 777.264C1830.09 775.745 1831.24 774.605 1832.76 774.605C1834.28 774.605 1835.43 775.872 1835.43 777.264Z" fill="white"/>
<path d="M1858.17 777.264C1858.17 778.784 1857.02 779.923 1855.5 779.923C1853.98 779.923 1852.83 778.784 1852.83 777.264C1852.83 775.745 1853.98 774.605 1855.5 774.605C1856.9 774.605 1858.17 775.872 1858.17 777.264Z" fill="white"/>
<path d="M1880.91 777.264C1880.91 778.784 1879.76 779.923 1878.24 779.923C1876.72 779.923 1875.57 778.784 1875.57 777.264C1875.57 775.745 1876.72 774.605 1878.24 774.605C1879.76 774.605 1880.91 775.872 1880.91 777.264Z" fill="white"/>
<path d="M1903.52 777.264C1903.52 778.784 1902.38 779.923 1900.85 779.923C1899.33 779.923 1898.18 778.784 1898.18 777.264C1898.18 775.745 1899.33 774.605 1900.85 774.605C1902.38 774.605 1903.52 775.872 1903.52 777.264Z" fill="white"/>
<path d="M1767.34 796.131C1767.34 797.65 1766.19 798.79 1764.67 798.79C1763.14 798.79 1762 797.65 1762 796.131C1762 794.611 1763.14 793.472 1764.67 793.472C1766.19 793.472 1767.34 794.611 1767.34 796.131Z" fill="white"/>
<path d="M1790.08 796.131C1790.08 797.65 1788.93 798.79 1787.41 798.79C1785.88 798.79 1784.74 797.65 1784.74 796.131C1784.74 794.611 1785.88 793.472 1787.41 793.472C1788.8 793.472 1790.08 794.611 1790.08 796.131Z" fill="white"/>
<path d="M1812.69 796.131C1812.69 797.65 1811.54 798.79 1810.02 798.79C1808.5 798.79 1807.35 797.65 1807.35 796.131C1807.35 794.611 1808.5 793.472 1810.02 793.472C1811.54 793.472 1812.69 794.611 1812.69 796.131Z" fill="white"/>
<path d="M1835.43 796.131C1835.43 797.65 1834.28 798.79 1832.76 798.79C1831.24 798.79 1830.09 797.65 1830.09 796.131C1830.09 794.611 1831.24 793.472 1832.76 793.472C1834.28 793.472 1835.43 794.611 1835.43 796.131Z" fill="white"/>
<path d="M1858.17 796.131C1858.17 797.65 1857.02 798.79 1855.5 798.79C1853.98 798.79 1852.83 797.65 1852.83 796.131C1852.83 794.611 1853.98 793.472 1855.5 793.472C1856.9 793.472 1858.17 794.611 1858.17 796.131Z" fill="white"/>
<path d="M1880.91 796.131C1880.91 797.65 1879.76 798.79 1878.24 798.79C1876.72 798.79 1875.57 797.65 1875.57 796.131C1875.57 794.611 1876.72 793.472 1878.24 793.472C1879.76 793.472 1880.91 794.611 1880.91 796.131Z" fill="white"/>
<path d="M1903.52 796.131C1903.52 797.65 1902.38 798.79 1900.85 798.79C1899.33 798.79 1898.18 797.65 1898.18 796.131C1898.18 794.611 1899.33 793.472 1900.85 793.472C1902.38 793.472 1903.52 794.611 1903.52 796.131Z" fill="white"/>
<path d="M1767.34 739.659C1767.34 741.178 1766.19 742.318 1764.67 742.318C1763.14 742.318 1762 741.178 1762 739.659C1762 738.14 1763.14 737 1764.67 737C1766.19 737 1767.34 738.14 1767.34 739.659Z" fill="white"/>
<path d="M1790.08 739.659C1790.08 741.178 1788.93 742.318 1787.41 742.318C1785.88 742.318 1784.74 741.178 1784.74 739.659C1784.74 738.14 1785.88 737 1787.41 737C1788.8 737 1790.08 738.14 1790.08 739.659Z" fill="white"/>
<path d="M1812.69 739.659C1812.69 741.178 1811.54 742.318 1810.02 742.318C1808.5 742.318 1807.35 741.178 1807.35 739.659C1807.35 738.14 1808.62 737 1810.02 737C1811.54 737 1812.69 738.14 1812.69 739.659Z" fill="white"/>
<path d="M1835.43 739.659C1835.43 741.178 1834.28 742.318 1832.76 742.318C1831.24 742.318 1830.09 741.178 1830.09 739.659C1830.09 738.14 1831.36 737 1832.76 737C1834.16 737 1835.43 738.14 1835.43 739.659Z" fill="white"/>
<path d="M1858.17 739.659C1858.17 741.178 1857.02 742.318 1855.5 742.318C1853.98 742.318 1852.83 741.178 1852.83 739.659C1852.83 738.14 1853.98 737 1855.5 737C1856.9 737 1858.17 738.14 1858.17 739.659Z" fill="white"/>
<path d="M1880.91 739.659C1880.91 741.178 1879.76 742.318 1878.24 742.318C1876.72 742.318 1875.57 741.178 1875.57 739.659C1875.57 738.14 1876.72 737 1878.24 737C1879.76 737 1880.91 738.14 1880.91 739.659Z" fill="white"/>
<path d="M1903.52 739.659C1903.52 741.178 1902.38 742.318 1900.85 742.318C1899.33 742.318 1898.18 741.178 1898.18 739.659C1898.18 738.14 1899.33 737 1900.85 737C1902.38 737 1903.52 738.14 1903.52 739.659Z" fill="white"/>
<path d="M1767.34 758.525C1767.34 760.045 1766.19 761.184 1764.67 761.184C1763.14 761.184 1762 759.918 1762 758.525C1762 757.006 1763.14 755.866 1764.67 755.866C1766.19 755.866 1767.34 757.006 1767.34 758.525Z" fill="white"/>
<path d="M1790.08 758.525C1790.08 760.045 1788.93 761.184 1787.41 761.184C1785.88 761.184 1784.74 760.045 1784.74 758.525C1784.74 757.006 1785.88 755.866 1787.41 755.866C1788.8 755.866 1790.08 757.006 1790.08 758.525Z" fill="white"/>
<path d="M1812.69 758.525C1812.69 760.045 1811.54 761.184 1810.02 761.184C1808.5 761.184 1807.35 760.045 1807.35 758.525C1807.35 757.006 1808.5 755.866 1810.02 755.866C1811.54 755.866 1812.69 757.006 1812.69 758.525Z" fill="white"/>
<path d="M1835.43 758.525C1835.43 760.045 1834.28 761.184 1832.76 761.184C1831.24 761.184 1830.09 760.045 1830.09 758.525C1830.09 757.006 1831.24 755.866 1832.76 755.866C1834.28 755.866 1835.43 757.006 1835.43 758.525Z" fill="white"/>
<path d="M1858.17 758.525C1858.17 760.045 1857.02 761.184 1855.5 761.184C1853.98 761.184 1852.83 760.045 1852.83 758.525C1852.83 757.006 1853.98 755.866 1855.5 755.866C1856.9 755.866 1858.17 757.006 1858.17 758.525Z" fill="white"/>
<path d="M1880.91 758.525C1880.91 760.045 1879.76 761.184 1878.24 761.184C1876.72 761.184 1875.57 760.045 1875.57 758.525C1875.57 757.006 1876.72 755.866 1878.24 755.866C1879.76 755.866 1880.91 757.006 1880.91 758.525Z" fill="white"/>
<path d="M1903.52 758.525C1903.52 760.045 1902.38 761.184 1900.85 761.184C1899.33 761.184 1898.18 760.045 1898.18 758.525C1898.18 757.006 1899.33 755.866 1900.85 755.866C1902.38 755.866 1903.52 757.006 1903.52 758.525Z" fill="white"/>
<path d="M1767.34 814.87C1767.34 816.389 1766.19 817.529 1764.67 817.529C1763.14 817.529 1762 816.389 1762 814.87C1762 813.35 1763.14 812.211 1764.67 812.211C1766.19 812.211 1767.34 813.477 1767.34 814.87Z" fill="white"/>
<path d="M1790.08 814.87C1790.08 816.389 1788.93 817.529 1787.41 817.529C1785.88 817.529 1784.74 816.389 1784.74 814.87C1784.74 813.35 1785.88 812.211 1787.41 812.211C1788.8 812.211 1790.08 813.477 1790.08 814.87Z" fill="white"/>
<path d="M1812.69 814.87C1812.69 816.389 1811.54 817.529 1810.02 817.529C1808.5 817.529 1807.35 816.389 1807.35 814.87C1807.35 813.35 1808.5 812.211 1810.02 812.211C1811.54 812.211 1812.69 813.477 1812.69 814.87Z" fill="white"/>
<path d="M1835.43 814.87C1835.43 816.389 1834.28 817.529 1832.76 817.529C1831.24 817.529 1830.09 816.389 1830.09 814.87C1830.09 813.35 1831.24 812.211 1832.76 812.211C1834.28 812.211 1835.43 813.477 1835.43 814.87Z" fill="white"/>
<path d="M1858.17 814.87C1858.17 816.389 1857.02 817.529 1855.5 817.529C1853.98 817.529 1852.83 816.389 1852.83 814.87C1852.83 813.35 1853.98 812.211 1855.5 812.211C1856.9 812.211 1858.17 813.477 1858.17 814.87Z" fill="white"/>
<path d="M1880.91 814.87C1880.91 816.389 1879.76 817.529 1878.24 817.529C1876.72 817.529 1875.57 816.389 1875.57 814.87C1875.57 813.35 1876.72 812.211 1878.24 812.211C1879.76 812.211 1880.91 813.477 1880.91 814.87Z" fill="white"/>
<path d="M1903.52 814.87C1903.52 816.389 1902.38 817.529 1900.85 817.529C1899.33 817.529 1898.18 816.389 1898.18 814.87C1898.18 813.35 1899.33 812.211 1900.85 812.211C1902.38 812.211 1903.52 813.477 1903.52 814.87Z" fill="white"/>
<path d="M1767.34 833.736C1767.34 835.256 1766.19 836.395 1764.67 836.395C1763.14 836.395 1762 835.256 1762 833.736C1762 832.217 1763.14 831.077 1764.67 831.077C1766.19 831.077 1767.34 832.217 1767.34 833.736Z" fill="white"/>
<path d="M1790.08 833.736C1790.08 835.256 1788.93 836.395 1787.41 836.395C1785.88 836.395 1784.74 835.256 1784.74 833.736C1784.74 832.217 1785.88 831.077 1787.41 831.077C1788.8 831.077 1790.08 832.217 1790.08 833.736Z" fill="white"/>
<path d="M1812.69 833.736C1812.69 835.256 1811.54 836.395 1810.02 836.395C1808.5 836.395 1807.35 835.256 1807.35 833.736C1807.35 832.217 1808.5 831.077 1810.02 831.077C1811.54 831.077 1812.69 832.217 1812.69 833.736Z" fill="white"/>
<path d="M1832.76 836.395C1834.23 836.395 1835.43 835.205 1835.43 833.736C1835.43 832.268 1834.23 831.077 1832.76 831.077C1831.29 831.077 1830.09 832.268 1830.09 833.736C1830.09 835.205 1831.29 836.395 1832.76 836.395Z" fill="white"/>
<path d="M1858.17 833.736C1858.17 835.256 1857.02 836.395 1855.5 836.395C1853.98 836.395 1852.83 835.256 1852.83 833.736C1852.83 832.217 1853.98 831.077 1855.5 831.077C1856.9 831.077 1858.17 832.217 1858.17 833.736Z" fill="white"/>
<path d="M1880.91 833.736C1880.91 835.256 1879.76 836.395 1878.24 836.395C1876.72 836.395 1875.57 835.256 1875.57 833.736C1875.57 832.217 1876.72 831.077 1878.24 831.077C1879.76 831.077 1880.91 832.217 1880.91 833.736Z" fill="white"/>
<path d="M1903.52 833.736C1903.52 835.256 1902.38 836.395 1900.85 836.395C1899.33 836.395 1898.18 835.256 1898.18 833.736C1898.18 832.217 1899.33 831.077 1900.85 831.077C1902.38 831.077 1903.52 832.217 1903.52 833.736Z" fill="white"/>
<path d="M1767.34 852.601C1767.34 854.121 1766.19 855.26 1764.67 855.26C1763.14 855.26 1762 854.121 1762 852.601C1762 851.082 1763.14 849.942 1764.67 849.942C1766.19 849.942 1767.34 851.082 1767.34 852.601Z" fill="white"/>
<path d="M1790.08 852.601C1790.08 854.121 1788.93 855.26 1787.41 855.26C1785.88 855.26 1784.74 854.121 1784.74 852.601C1784.74 851.082 1785.88 849.942 1787.41 849.942C1788.8 849.942 1790.08 851.082 1790.08 852.601Z" fill="white"/>
<path d="M1812.69 852.601C1812.69 854.121 1811.54 855.26 1810.02 855.26C1808.5 855.26 1807.35 854.121 1807.35 852.601C1807.35 851.082 1808.5 849.942 1810.02 849.942C1811.54 849.942 1812.69 851.082 1812.69 852.601Z" fill="white"/>
<path d="M1835.43 852.601C1835.43 854.121 1834.28 855.26 1832.76 855.26C1831.24 855.26 1830.09 854.121 1830.09 852.601C1830.09 851.082 1831.24 849.942 1832.76 849.942C1834.28 849.942 1835.43 851.082 1835.43 852.601Z" fill="white"/>
<path d="M1858.17 852.601C1858.17 854.121 1857.02 855.26 1855.5 855.26C1853.98 855.26 1852.83 854.121 1852.83 852.601C1852.83 851.082 1853.98 849.942 1855.5 849.942C1856.9 849.942 1858.17 851.082 1858.17 852.601Z" fill="white"/>
<path d="M1880.91 852.601C1880.91 854.121 1879.76 855.26 1878.24 855.26C1876.72 855.26 1875.57 854.121 1875.57 852.601C1875.57 851.082 1876.72 849.942 1878.24 849.942C1879.76 849.942 1880.91 851.082 1880.91 852.601Z" fill="white"/>
<path d="M1903.52 852.601C1903.52 854.121 1902.38 855.26 1900.85 855.26C1899.33 855.26 1898.18 854.121 1898.18 852.601C1898.18 851.082 1899.33 849.942 1900.85 849.942C1902.38 849.942 1903.52 851.082 1903.52 852.601Z" fill="white"/>
<path d="M1767.34 871.341C1767.34 872.86 1766.19 874 1764.67 874C1763.14 874 1762 872.86 1762 871.341C1762 869.821 1763.14 868.682 1764.67 868.682C1766.19 868.682 1767.34 869.948 1767.34 871.341Z" fill="white"/>
<path d="M1790.08 871.341C1790.08 872.86 1788.93 874 1787.41 874C1785.88 874 1784.74 872.86 1784.74 871.341C1784.74 869.821 1785.88 868.682 1787.41 868.682C1788.8 868.682 1790.08 869.948 1790.08 871.341Z" fill="white"/>
<path d="M1812.69 871.341C1812.69 872.86 1811.54 874 1810.02 874C1808.5 874 1807.35 872.86 1807.35 871.341C1807.35 869.821 1808.5 868.682 1810.02 868.682C1811.54 868.682 1812.69 869.948 1812.69 871.341Z" fill="white"/>
<path d="M1835.43 871.341C1835.43 872.86 1834.28 874 1832.76 874C1831.24 874 1830.09 872.86 1830.09 871.341C1830.09 869.821 1831.24 868.682 1832.76 868.682C1834.28 868.682 1835.43 869.948 1835.43 871.341Z" fill="white"/>
<path d="M1858.17 871.341C1858.17 872.86 1857.02 874 1855.5 874C1853.98 874 1852.83 872.86 1852.83 871.341C1852.83 869.821 1853.98 868.682 1855.5 868.682C1856.9 868.682 1858.17 869.948 1858.17 871.341Z" fill="white"/>
<path d="M1880.91 871.341C1880.91 872.86 1879.76 874 1878.24 874C1876.72 874 1875.57 872.86 1875.57 871.341C1875.57 869.821 1876.72 868.682 1878.24 868.682C1879.76 868.682 1880.91 869.948 1880.91 871.341Z" fill="white"/>
<path d="M1903.52 871.341C1903.52 872.86 1902.38 874 1900.85 874C1899.33 874 1898.18 872.86 1898.18 871.341C1898.18 869.821 1899.33 868.682 1900.85 868.682C1902.38 868.682 1903.52 869.948 1903.52 871.341Z" fill="white"/>
</g>
<g opacity="0.3">
<path d="M1760.81 63.2212L1770.47 72.8799L1744.78 98.5633L1719.1 72.8799L1728.68 63.2943L1744.71 79.319L1760.81 63.2212Z" fill="white"/>
<path d="M1760.81 28.5386L1770.39 38.1241L1744.71 63.8075L1719.1 38.1973L1728.76 28.5386L1744.78 44.5632L1760.81 28.5386Z" fill="white"/>
<path d="M1760.73 -6.21835L1770.39 3.44036L1744.78 29.0506L1719.1 3.36719L1728.68 -6.21835L1744.71 9.80633L1760.73 -6.21835Z" fill="white"/>
</g>
<path opacity="0.3" d="M793 796.553C779.071 810.482 756.377 810.482 742.447 796.553C728.518 782.623 728.518 759.929 742.447 746L793 796.553Z" fill="white"/>
<g opacity="0.3">
<path d="M847.486 517.89C858.205 517.89 866.937 509.165 866.937 498.453C866.937 487.742 858.205 479.017 847.486 479.017L847.486 517.89Z" fill="white"/>
<path d="M817.141 517.89C827.861 517.89 836.592 509.165 836.592 498.453C836.592 487.742 827.861 479.017 817.141 479.017L817.141 517.89Z" fill="white"/>
<path d="M786.796 517.89C797.515 517.89 806.247 509.165 806.247 498.453C806.247 487.742 797.515 479.017 786.796 479.017V517.89Z" fill="white"/>
</g>
<g opacity="0.3">
<path d="M145.301 132.921L145.301 121L177 121L177 152.699L165.169 152.699L165.169 132.921L145.301 132.921Z" fill="white"/>
<path d="M123.898 154.325L123.898 142.494L155.597 142.494L155.597 174.103L143.676 174.103L143.676 154.325L123.898 154.325Z" fill="white"/>
<path d="M102.495 175.819L102.495 163.898L134.103 163.898L134.103 195.597L122.272 195.597L122.272 175.819L102.495 175.819Z" fill="white"/>
<path d="M81.0005 197.222L81.0004 185.301L112.699 185.301L112.699 217L100.778 217L100.778 197.222L81.0005 197.222Z" fill="white"/>
</g>
</g>
<defs>
<linearGradient id="paint0_linear_2495_2543" x1="-7.15256e-05" y1="1072" x2="1316.78" y2="-510.069" gradientUnits="userSpaceOnUse">
<stop stop-color="#FF3F3A"/>
<stop offset="1" stop-color="#F75E05"/>
</linearGradient>
<clipPath id="clip0_2495_2543">
<rect width="1920" height="1080" fill="white" transform="translate(-1 -12)"/>
</clipPath>
<clipPath id="clip1_2495_2543">
<rect width="284" height="284" fill="white" transform="translate(-113 884)"/>
</clipPath>
</defs>
</svg>