<svg width="1920" height="1072" viewBox="0 0 1920 1072" fill="none" xmlns="http://www.w3.org/2000/svg">
<g clip-path="url(#clip0_2234_8802)">
<g opacity="0.2" clip-path="url(#clip1_2234_8802)">
<path d="M30.0975 888C-48.4557 888 -112 951.544 -112 1030.1C-112 1108.46 -48.4557 1172.19 30.0975 1172.19C108.456 1172.19 172.195 1108.65 172.195 1030.1C172 951.544 108.456 888 30.0975 888ZM30.0975 1163.03C-43.3878 1163.03 -102.839 1103.58 -102.839 1030.1C-102.839 956.612 -43.3878 897.161 30.0975 897.161C103.583 897.161 163.034 956.612 163.034 1030.1C163.034 1103.39 103.388 1163.03 30.0975 1163.03Z" fill="white"/>
<path d="M30.0988 918.603C-31.3014 918.603 -81.2012 968.502 -81.2012 1029.9C-81.2012 1091.3 -31.3014 1141.2 30.0988 1141.2C91.4989 1141.2 141.399 1091.5 141.399 1030.1C141.399 968.502 91.4989 918.603 30.0988 918.603ZM30.0988 1124.24C-21.9452 1124.24 -64.243 1081.95 -64.243 1029.9C-64.243 977.859 -21.9452 935.561 30.0988 935.561C82.1427 935.561 124.441 977.859 124.441 1029.9C124.441 1081.95 82.1427 1124.24 30.0988 1124.24Z" fill="white"/>
<path d="M30.098 967.527C-4.40304 967.527 -32.4717 995.596 -32.4717 1030.1C-32.4717 1064.6 -4.59796 1092.67 30.098 1092.67C64.599 1092.67 92.6677 1064.6 92.6677 1030.1C92.4727 995.596 64.599 967.527 30.098 967.527ZM30.098 1063.62C11.5805 1063.62 -3.42843 1048.61 -3.42843 1030.1C-3.42843 1011.58 11.5805 996.571 30.098 996.571C48.6155 996.571 63.6244 1011.58 63.6244 1030.1C63.6244 1048.61 48.6155 1063.62 30.098 1063.62Z" fill="white"/>
</g>
<g opacity="0.8">
<path d="M1768.34 781.264C1768.34 782.784 1767.19 783.923 1765.67 783.923C1764.14 783.923 1763 782.784 1763 781.264C1763 779.745 1764.14 778.605 1765.67 778.605C1767.19 778.605 1768.34 779.872 1768.34 781.264Z" fill="white"/>
<path d="M1791.08 781.264C1791.08 782.784 1789.93 783.923 1788.41 783.923C1786.88 783.923 1785.74 782.784 1785.74 781.264C1785.74 779.745 1786.88 778.605 1788.41 778.605C1789.8 778.605 1791.08 779.872 1791.08 781.264Z" fill="white"/>
<path d="M1813.69 781.264C1813.69 782.784 1812.54 783.923 1811.02 783.923C1809.5 783.923 1808.35 782.784 1808.35 781.264C1808.35 779.745 1809.5 778.605 1811.02 778.605C1812.54 778.605 1813.69 779.872 1813.69 781.264Z" fill="white"/>
<path d="M1836.43 781.264C1836.43 782.784 1835.28 783.923 1833.76 783.923C1832.24 783.923 1831.09 782.784 1831.09 781.264C1831.09 779.745 1832.24 778.605 1833.76 778.605C1835.28 778.605 1836.43 779.872 1836.43 781.264Z" fill="white"/>
<path d="M1859.17 781.264C1859.17 782.784 1858.02 783.923 1856.5 783.923C1854.98 783.923 1853.83 782.784 1853.83 781.264C1853.83 779.745 1854.98 778.605 1856.5 778.605C1857.9 778.605 1859.17 779.872 1859.17 781.264Z" fill="white"/>
<path d="M1881.91 781.264C1881.91 782.784 1880.76 783.923 1879.24 783.923C1877.72 783.923 1876.57 782.784 1876.57 781.264C1876.57 779.745 1877.72 778.605 1879.24 778.605C1880.76 778.605 1881.91 779.872 1881.91 781.264Z" fill="white"/>
<path d="M1904.52 781.264C1904.52 782.784 1903.38 783.923 1901.85 783.923C1900.33 783.923 1899.18 782.784 1899.18 781.264C1899.18 779.745 1900.33 778.605 1901.85 778.605C1903.38 778.605 1904.52 779.872 1904.52 781.264Z" fill="white"/>
<path d="M1768.34 800.131C1768.34 801.65 1767.19 802.79 1765.67 802.79C1764.14 802.79 1763 801.65 1763 800.131C1763 798.611 1764.14 797.472 1765.67 797.472C1767.19 797.472 1768.34 798.611 1768.34 800.131Z" fill="white"/>
<path d="M1791.08 800.131C1791.08 801.65 1789.93 802.79 1788.41 802.79C1786.88 802.79 1785.74 801.65 1785.74 800.131C1785.74 798.611 1786.88 797.472 1788.41 797.472C1789.8 797.472 1791.08 798.611 1791.08 800.131Z" fill="white"/>
<path d="M1813.69 800.131C1813.69 801.65 1812.54 802.79 1811.02 802.79C1809.5 802.79 1808.35 801.65 1808.35 800.131C1808.35 798.611 1809.5 797.472 1811.02 797.472C1812.54 797.472 1813.69 798.611 1813.69 800.131Z" fill="white"/>
<path d="M1836.43 800.131C1836.43 801.65 1835.28 802.79 1833.76 802.79C1832.24 802.79 1831.09 801.65 1831.09 800.131C1831.09 798.611 1832.24 797.472 1833.76 797.472C1835.28 797.472 1836.43 798.611 1836.43 800.131Z" fill="white"/>
<path d="M1859.17 800.131C1859.17 801.65 1858.02 802.79 1856.5 802.79C1854.98 802.79 1853.83 801.65 1853.83 800.131C1853.83 798.611 1854.98 797.472 1856.5 797.472C1857.9 797.472 1859.17 798.611 1859.17 800.131Z" fill="white"/>
<path d="M1881.91 800.131C1881.91 801.65 1880.76 802.79 1879.24 802.79C1877.72 802.79 1876.57 801.65 1876.57 800.131C1876.57 798.611 1877.72 797.472 1879.24 797.472C1880.76 797.472 1881.91 798.611 1881.91 800.131Z" fill="white"/>
<path d="M1904.52 800.131C1904.52 801.65 1903.38 802.79 1901.85 802.79C1900.33 802.79 1899.18 801.65 1899.18 800.131C1899.18 798.611 1900.33 797.472 1901.85 797.472C1903.38 797.472 1904.52 798.611 1904.52 800.131Z" fill="white"/>
<path d="M1768.34 743.659C1768.34 745.178 1767.19 746.318 1765.67 746.318C1764.14 746.318 1763 745.178 1763 743.659C1763 742.14 1764.14 741 1765.67 741C1767.19 741 1768.34 742.14 1768.34 743.659Z" fill="white"/>
<path d="M1791.08 743.659C1791.08 745.178 1789.93 746.318 1788.41 746.318C1786.88 746.318 1785.74 745.178 1785.74 743.659C1785.74 742.14 1786.88 741 1788.41 741C1789.8 741 1791.08 742.14 1791.08 743.659Z" fill="white"/>
<path d="M1813.69 743.659C1813.69 745.178 1812.54 746.318 1811.02 746.318C1809.5 746.318 1808.35 745.178 1808.35 743.659C1808.35 742.14 1809.62 741 1811.02 741C1812.54 741 1813.69 742.14 1813.69 743.659Z" fill="white"/>
<path d="M1836.43 743.659C1836.43 745.178 1835.28 746.318 1833.76 746.318C1832.24 746.318 1831.09 745.178 1831.09 743.659C1831.09 742.14 1832.36 741 1833.76 741C1835.16 741 1836.43 742.14 1836.43 743.659Z" fill="white"/>
<path d="M1859.17 743.659C1859.17 745.178 1858.02 746.318 1856.5 746.318C1854.98 746.318 1853.83 745.178 1853.83 743.659C1853.83 742.14 1854.98 741 1856.5 741C1857.9 741 1859.17 742.14 1859.17 743.659Z" fill="white"/>
<path d="M1881.91 743.659C1881.91 745.178 1880.76 746.318 1879.24 746.318C1877.72 746.318 1876.57 745.178 1876.57 743.659C1876.57 742.14 1877.72 741 1879.24 741C1880.76 741 1881.91 742.14 1881.91 743.659Z" fill="white"/>
<path d="M1904.52 743.659C1904.52 745.178 1903.38 746.318 1901.85 746.318C1900.33 746.318 1899.18 745.178 1899.18 743.659C1899.18 742.14 1900.33 741 1901.85 741C1903.38 741 1904.52 742.14 1904.52 743.659Z" fill="white"/>
<path d="M1768.34 762.525C1768.34 764.045 1767.19 765.184 1765.67 765.184C1764.14 765.184 1763 763.918 1763 762.525C1763 761.006 1764.14 759.866 1765.67 759.866C1767.19 759.866 1768.34 761.006 1768.34 762.525Z" fill="white"/>
<path d="M1791.08 762.525C1791.08 764.045 1789.93 765.184 1788.41 765.184C1786.88 765.184 1785.74 764.045 1785.74 762.525C1785.74 761.006 1786.88 759.866 1788.41 759.866C1789.8 759.866 1791.08 761.006 1791.08 762.525Z" fill="white"/>
<path d="M1813.69 762.525C1813.69 764.045 1812.54 765.184 1811.02 765.184C1809.5 765.184 1808.35 764.045 1808.35 762.525C1808.35 761.006 1809.5 759.866 1811.02 759.866C1812.54 759.866 1813.69 761.006 1813.69 762.525Z" fill="white"/>
<path d="M1836.43 762.525C1836.43 764.045 1835.28 765.184 1833.76 765.184C1832.24 765.184 1831.09 764.045 1831.09 762.525C1831.09 761.006 1832.24 759.866 1833.76 759.866C1835.28 759.866 1836.43 761.006 1836.43 762.525Z" fill="white"/>
<path d="M1859.17 762.525C1859.17 764.045 1858.02 765.184 1856.5 765.184C1854.98 765.184 1853.83 764.045 1853.83 762.525C1853.83 761.006 1854.98 759.866 1856.5 759.866C1857.9 759.866 1859.17 761.006 1859.17 762.525Z" fill="white"/>
<path d="M1881.91 762.525C1881.91 764.045 1880.76 765.184 1879.24 765.184C1877.72 765.184 1876.57 764.045 1876.57 762.525C1876.57 761.006 1877.72 759.866 1879.24 759.866C1880.76 759.866 1881.91 761.006 1881.91 762.525Z" fill="white"/>
<path d="M1904.52 762.525C1904.52 764.045 1903.38 765.184 1901.85 765.184C1900.33 765.184 1899.18 764.045 1899.18 762.525C1899.18 761.006 1900.33 759.866 1901.85 759.866C1903.38 759.866 1904.52 761.006 1904.52 762.525Z" fill="white"/>
<path d="M1768.34 818.87C1768.34 820.389 1767.19 821.529 1765.67 821.529C1764.14 821.529 1763 820.389 1763 818.87C1763 817.35 1764.14 816.211 1765.67 816.211C1767.19 816.211 1768.34 817.477 1768.34 818.87Z" fill="white"/>
<path d="M1791.08 818.87C1791.08 820.389 1789.93 821.529 1788.41 821.529C1786.88 821.529 1785.74 820.389 1785.74 818.87C1785.74 817.35 1786.88 816.211 1788.41 816.211C1789.8 816.211 1791.08 817.477 1791.08 818.87Z" fill="white"/>
<path d="M1813.69 818.87C1813.69 820.389 1812.54 821.529 1811.02 821.529C1809.5 821.529 1808.35 820.389 1808.35 818.87C1808.35 817.35 1809.5 816.211 1811.02 816.211C1812.54 816.211 1813.69 817.477 1813.69 818.87Z" fill="white"/>
<path d="M1836.43 818.87C1836.43 820.389 1835.28 821.529 1833.76 821.529C1832.24 821.529 1831.09 820.389 1831.09 818.87C1831.09 817.35 1832.24 816.211 1833.76 816.211C1835.28 816.211 1836.43 817.477 1836.43 818.87Z" fill="white"/>
<path d="M1859.17 818.87C1859.17 820.389 1858.02 821.529 1856.5 821.529C1854.98 821.529 1853.83 820.389 1853.83 818.87C1853.83 817.35 1854.98 816.211 1856.5 816.211C1857.9 816.211 1859.17 817.477 1859.17 818.87Z" fill="white"/>
<path d="M1881.91 818.87C1881.91 820.389 1880.76 821.529 1879.24 821.529C1877.72 821.529 1876.57 820.389 1876.57 818.87C1876.57 817.35 1877.72 816.211 1879.24 816.211C1880.76 816.211 1881.91 817.477 1881.91 818.87Z" fill="white"/>
<path d="M1904.52 818.87C1904.52 820.389 1903.38 821.529 1901.85 821.529C1900.33 821.529 1899.18 820.389 1899.18 818.87C1899.18 817.35 1900.33 816.211 1901.85 816.211C1903.38 816.211 1904.52 817.477 1904.52 818.87Z" fill="white"/>
<path d="M1768.34 837.736C1768.34 839.256 1767.19 840.395 1765.67 840.395C1764.14 840.395 1763 839.256 1763 837.736C1763 836.217 1764.14 835.077 1765.67 835.077C1767.19 835.077 1768.34 836.217 1768.34 837.736Z" fill="white"/>
<path d="M1791.08 837.736C1791.08 839.256 1789.93 840.395 1788.41 840.395C1786.88 840.395 1785.74 839.256 1785.74 837.736C1785.74 836.217 1786.88 835.077 1788.41 835.077C1789.8 835.077 1791.08 836.217 1791.08 837.736Z" fill="white"/>
<path d="M1813.69 837.736C1813.69 839.256 1812.54 840.395 1811.02 840.395C1809.5 840.395 1808.35 839.256 1808.35 837.736C1808.35 836.217 1809.5 835.077 1811.02 835.077C1812.54 835.077 1813.69 836.217 1813.69 837.736Z" fill="white"/>
<path d="M1833.76 840.395C1835.23 840.395 1836.43 839.205 1836.43 837.736C1836.43 836.268 1835.23 835.077 1833.76 835.077C1832.29 835.077 1831.09 836.268 1831.09 837.736C1831.09 839.205 1832.29 840.395 1833.76 840.395Z" fill="white"/>
<path d="M1859.17 837.736C1859.17 839.256 1858.02 840.395 1856.5 840.395C1854.98 840.395 1853.83 839.256 1853.83 837.736C1853.83 836.217 1854.98 835.077 1856.5 835.077C1857.9 835.077 1859.17 836.217 1859.17 837.736Z" fill="white"/>
<path d="M1881.91 837.736C1881.91 839.256 1880.76 840.395 1879.24 840.395C1877.72 840.395 1876.57 839.256 1876.57 837.736C1876.57 836.217 1877.72 835.077 1879.24 835.077C1880.76 835.077 1881.91 836.217 1881.91 837.736Z" fill="white"/>
<path d="M1904.52 837.736C1904.52 839.256 1903.38 840.395 1901.85 840.395C1900.33 840.395 1899.18 839.256 1899.18 837.736C1899.18 836.217 1900.33 835.077 1901.85 835.077C1903.38 835.077 1904.52 836.217 1904.52 837.736Z" fill="white"/>
<path d="M1768.34 856.601C1768.34 858.121 1767.19 859.26 1765.67 859.26C1764.14 859.26 1763 858.121 1763 856.601C1763 855.082 1764.14 853.942 1765.67 853.942C1767.19 853.942 1768.34 855.082 1768.34 856.601Z" fill="white"/>
<path d="M1791.08 856.601C1791.08 858.121 1789.93 859.26 1788.41 859.26C1786.88 859.26 1785.74 858.121 1785.74 856.601C1785.74 855.082 1786.88 853.942 1788.41 853.942C1789.8 853.942 1791.08 855.082 1791.08 856.601Z" fill="white"/>
<path d="M1813.69 856.601C1813.69 858.121 1812.54 859.26 1811.02 859.26C1809.5 859.26 1808.35 858.121 1808.35 856.601C1808.35 855.082 1809.5 853.942 1811.02 853.942C1812.54 853.942 1813.69 855.082 1813.69 856.601Z" fill="white"/>
<path d="M1836.43 856.601C1836.43 858.121 1835.28 859.26 1833.76 859.26C1832.24 859.26 1831.09 858.121 1831.09 856.601C1831.09 855.082 1832.24 853.942 1833.76 853.942C1835.28 853.942 1836.43 855.082 1836.43 856.601Z" fill="white"/>
<path d="M1859.17 856.601C1859.17 858.121 1858.02 859.26 1856.5 859.26C1854.98 859.26 1853.83 858.121 1853.83 856.601C1853.83 855.082 1854.98 853.942 1856.5 853.942C1857.9 853.942 1859.17 855.082 1859.17 856.601Z" fill="white"/>
<path d="M1881.91 856.601C1881.91 858.121 1880.76 859.26 1879.24 859.26C1877.72 859.26 1876.57 858.121 1876.57 856.601C1876.57 855.082 1877.72 853.942 1879.24 853.942C1880.76 853.942 1881.91 855.082 1881.91 856.601Z" fill="white"/>
<path d="M1904.52 856.601C1904.52 858.121 1903.38 859.26 1901.85 859.26C1900.33 859.26 1899.18 858.121 1899.18 856.601C1899.18 855.082 1900.33 853.942 1901.85 853.942C1903.38 853.942 1904.52 855.082 1904.52 856.601Z" fill="white"/>
<path d="M1768.34 875.341C1768.34 876.86 1767.19 878 1765.67 878C1764.14 878 1763 876.86 1763 875.341C1763 873.821 1764.14 872.682 1765.67 872.682C1767.19 872.682 1768.34 873.948 1768.34 875.341Z" fill="white"/>
<path d="M1791.08 875.341C1791.08 876.86 1789.93 878 1788.41 878C1786.88 878 1785.74 876.86 1785.74 875.341C1785.74 873.821 1786.88 872.682 1788.41 872.682C1789.8 872.682 1791.08 873.948 1791.08 875.341Z" fill="white"/>
<path d="M1813.69 875.341C1813.69 876.86 1812.54 878 1811.02 878C1809.5 878 1808.35 876.86 1808.35 875.341C1808.35 873.821 1809.5 872.682 1811.02 872.682C1812.54 872.682 1813.69 873.948 1813.69 875.341Z" fill="white"/>
<path d="M1836.43 875.341C1836.43 876.86 1835.28 878 1833.76 878C1832.24 878 1831.09 876.86 1831.09 875.341C1831.09 873.821 1832.24 872.682 1833.76 872.682C1835.28 872.682 1836.43 873.948 1836.43 875.341Z" fill="white"/>
<path d="M1859.17 875.341C1859.17 876.86 1858.02 878 1856.5 878C1854.98 878 1853.83 876.86 1853.83 875.341C1853.83 873.821 1854.98 872.682 1856.5 872.682C1857.9 872.682 1859.17 873.948 1859.17 875.341Z" fill="white"/>
<path d="M1881.91 875.341C1881.91 876.86 1880.76 878 1879.24 878C1877.72 878 1876.57 876.86 1876.57 875.341C1876.57 873.821 1877.72 872.682 1879.24 872.682C1880.76 872.682 1881.91 873.948 1881.91 875.341Z" fill="white"/>
<path d="M1904.52 875.341C1904.52 876.86 1903.38 878 1901.85 878C1900.33 878 1899.18 876.86 1899.18 875.341C1899.18 873.821 1900.33 872.682 1901.85 872.682C1903.38 872.682 1904.52 873.948 1904.52 875.341Z" fill="white"/>
</g>
<g opacity="0.3">
<path d="M1761.81 67.2212L1771.47 76.8799L1745.78 102.563L1720.1 76.8799L1729.68 67.2943L1745.71 83.319L1761.81 67.2212Z" fill="white"/>
<path d="M1761.81 32.5386L1771.39 42.1241L1745.71 67.8075L1720.1 42.1973L1729.76 32.5386L1745.78 48.5632L1761.81 32.5386Z" fill="white"/>
<path d="M1761.73 -2.21835L1771.39 7.44036L1745.78 33.0506L1720.1 7.36719L1729.68 -2.21835L1745.71 13.8063L1761.73 -2.21835Z" fill="white"/>
</g>
<path opacity="0.3" d="M794 800.553C780.071 814.482 757.377 814.482 743.447 800.553C729.518 786.623 729.518 763.929 743.447 750L794 800.553Z" fill="white"/>
<g opacity="0.3">
<path d="M848.486 521.89C859.205 521.89 867.937 513.165 867.937 502.453C867.937 491.742 859.205 483.017 848.486 483.017L848.486 521.89Z" fill="white"/>
<path d="M818.141 521.89C828.861 521.89 837.592 513.165 837.592 502.453C837.592 491.742 828.861 483.017 818.141 483.017L818.141 521.89Z" fill="white"/>
<path d="M787.796 521.89C798.515 521.89 807.247 513.165 807.247 502.453C807.247 491.742 798.515 483.017 787.796 483.017V521.89Z" fill="white"/>
</g>
<g opacity="0.3">
<path d="M146.301 136.921L146.301 125L178 125L178 156.699L166.169 156.699L166.169 136.921L146.301 136.921Z" fill="white"/>
<path d="M124.898 158.325L124.898 146.494L156.597 146.494L156.597 178.103L144.676 178.103L144.676 158.325L124.898 158.325Z" fill="white"/>
<path d="M103.495 179.819L103.495 167.898L135.103 167.898L135.103 199.597L123.272 199.597L123.272 179.819L103.495 179.819Z" fill="white"/>
<path d="M82.0005 201.222L82.0004 189.301L113.699 189.301L113.699 221L101.778 221L101.778 201.222L82.0005 201.222Z" fill="white"/>
</g>
</g>
<defs>
<clipPath id="clip0_2234_8802">
<rect width="1920" height="1080" fill="white" transform="translate(0 -8)"/>
</clipPath>
<clipPath id="clip1_2234_8802">
<rect width="284" height="284" fill="white" transform="translate(-112 888)"/>
</clipPath>
</defs>
</svg>
